<svg xmlns="http://www.w3.org/2000/svg" xmlns:xlink="http://www.w3.org/1999/xlink" contentStyleType="text/css" height="555px" preserveAspectRatio="none" style="width:2324px;height:555px;background:#FFFFFF;" version="1.1" viewBox="0 0 2324 555" width="2324px" zoomAndPan="magnify"><defs/><g><!--cluster Server (Mac Mini)--><g id="cluster_Server (Mac Mini)"><rect fill="none" height="206" rx="2.5" ry="2.5" style="stroke:#181818;stroke-width:1;" width="418" x="7" y="109"/><text fill="#000000" font-family="sans-serif" font-size="14" font-weight="bold" lengthAdjust="spacing" textLength="115.9238" x="158.0381" y="125.5332">Server (Mac Mini)</text></g><!--cluster Server (Mac Mini2)--><g id="cluster_Server (Mac Mini2)"><rect fill="none" height="206" rx="2.5" ry="2.5" style="stroke:#181818;stroke-width:1;" width="432" x="581" y="109"/><text fill="#000000" font-family="sans-serif" font-size="14" font-weight="bold" lengthAdjust="spacing" textLength="123.71" x="735.145" y="125.5332">Server (Mac Mini2)</text></g><!--cluster Server (LattePanda A)--><g id="cluster_Server (LattePanda A)"><rect fill="none" height="206" rx="2.5" ry="2.5" style="stroke:#181818;stroke-width:1;" width="432" x="1169" y="109"/><text fill="#000000" font-family="sans-serif" font-size="14" font-weight="bold" lengthAdjust="spacing" textLength="146.2686" x="1311.8657" y="125.5332">Server (LattePanda A)</text></g><!--cluster Server (LattePanda B)--><g id="cluster_Server (LattePanda B)"><rect fill="none" height="206" rx="2.5" ry="2.5" style="stroke:#181818;stroke-width:1;" width="432" x="1749" y="109"/><text fill="#000000" font-family="sans-serif" font-size="14" font-weight="bold" lengthAdjust="spacing" textLength="146.2686" x="1891.8657" y="125.5332">Server (LattePanda B)</text></g><!--entity Main System--><g id="elem_Main System"><rect fill="#F1F1F1" height="37.6094" rx="2.5" ry="2.5" style="stroke:#181818;stroke-width:0.5;" width="100.9102" x="1051.5" y="379"/><text fill="#000000" font-family="sans-serif" font-size="14" lengthAdjust="spacing" textLength="80.9102" x="1061.5" y="403.5332">Main System</text></g><!--entity DC Kamera B--><g id="elem_DC Kamera B"><rect fill="#F1F1F1" height="37.6094" rx="2.5" ry="2.5" style="stroke:#181818;stroke-width:0.5;" width="106.3584" x="164" y="145"/><text fill="#000000" font-family="sans-serif" font-size="14" lengthAdjust="spacing" textLength="86.3584" x="174" y="169.5332">DC Kamera B</text></g><!--entity DC Web Server--><g id="elem_DC Web Server"><rect fill="#F1F1F1" height="37.6094" rx="2.5" ry="2.5" style="stroke:#181818;stroke-width:0.5;" width="118.0205" x="256" y="261"/><text fill="#000000" font-family="sans-serif" font-size="14" lengthAdjust="spacing" textLength="98.0205" x="266" y="285.5332">DC Web Server</text></g><!--entity DC Kamera A--><g id="elem_DC Kamera A"><rect fill="#F1F1F1" height="37.6094" rx="2.5" ry="2.5" style="stroke:#181818;stroke-width:0.5;" width="106.3584" x="23" y="145"/><text fill="#000000" font-family="sans-serif" font-size="14" lengthAdjust="spacing" textLength="86.3584" x="33" y="169.5332">DC Kamera A</text></g><!--entity DC Bluetooth--><g id="elem_DC Bluetooth"><rect fill="#F1F1F1" height="37.6094" rx="2.5" ry="2.5" style="stroke:#181818;stroke-width:0.5;" width="103.2686" x="305.5" y="145"/><text fill="#000000" font-family="sans-serif" font-size="14" lengthAdjust="spacing" textLength="83.2686" x="315.5" y="169.5332">DC Bluetooth</text></g><!--entity DC Kamera D--><g id="elem_DC Kamera D"><rect fill="#F1F1F1" height="37.6094" rx="2.5" ry="2.5" style="stroke:#181818;stroke-width:0.5;" width="107.1309" x="597.5" y="145"/><text fill="#000000" font-family="sans-serif" font-size="14" lengthAdjust="spacing" textLength="87.1309" x="607.5" y="169.5332">DC Kamera D</text></g><!--entity DC Web Server 2--><g id="elem_DC Web Server 2"><rect fill="#F1F1F1" height="37.6094" rx="2.5" ry="2.5" style="stroke:#181818;stroke-width:0.5;" width="129.6963" x="826" y="261"/><text fill="#000000" font-family="sans-serif" font-size="14" lengthAdjust="spacing" textLength="109.6963" x="836" y="285.5332">DC Web Server 2</text></g><!--entity DC Kamera E--><g id="elem_DC Kamera E"><rect fill="#F1F1F1" height="37.6094" rx="2.5" ry="2.5" style="stroke:#181818;stroke-width:0.5;" width="106.3584" x="740" y="145"/><text fill="#000000" font-family="sans-serif" font-size="14" lengthAdjust="spacing" textLength="86.3584" x="750" y="169.5332">DC Kamera E</text></g><!--entity DC Bluetooth 2--><g id="elem_DC Bluetooth 2"><rect fill="#F1F1F1" height="37.6094" rx="2.5" ry="2.5" style="stroke:#181818;stroke-width:0.5;" width="114.9443" x="881.5" y="145"/><text fill="#000000" font-family="sans-serif" font-size="14" lengthAdjust="spacing" textLength="94.9443" x="891.5" y="169.5332">DC Bluetooth 2</text></g><!--entity DC Kamera F--><g id="elem_DC Kamera F"><rect fill="#F1F1F1" height="37.6094" rx="2.5" ry="2.5" style="stroke:#181818;stroke-width:0.5;" width="105.5723" x="1185" y="145"/><text fill="#000000" font-family="sans-serif" font-size="14" lengthAdjust="spacing" textLength="85.5723" x="1195" y="169.5332">DC Kamera F</text></g><!--entity DC Web Server 3--><g id="elem_DC Web Server 3"><rect fill="#F1F1F1" height="37.6094" rx="2.5" ry="2.5" style="stroke:#181818;stroke-width:0.5;" width="129.6963" x="1220" y="261"/><text fill="#000000" font-family="sans-serif" font-size="14" lengthAdjust="spacing" textLength="109.6963" x="1230" y="285.5332">DC Web Server 3</text></g><!--entity DC Kamera G--><g id="elem_DC Kamera G"><rect fill="#F1F1F1" height="37.6094" rx="2.5" ry="2.5" style="stroke:#181818;stroke-width:0.5;" width="107.9102" x="1326" y="145"/><text fill="#000000" font-family="sans-serif" font-size="14" lengthAdjust="spacing" textLength="87.9102" x="1336" y="169.5332">DC Kamera G</text></g><!--entity DC Bluetooth 3--><g id="elem_DC Bluetooth 3"><rect fill="#F1F1F1" height="37.6094" rx="2.5" ry="2.5" style="stroke:#181818;stroke-width:0.5;" width="114.9443" x="1469.5" y="145"/><text fill="#000000" font-family="sans-serif" font-size="14" lengthAdjust="spacing" textLength="94.9443" x="1479.5" y="169.5332">DC Bluetooth 3</text></g><!--entity DC Kamera H--><g id="elem_DC Kamera H"><rect fill="#F1F1F1" height="37.6094" rx="2.5" ry="2.5" style="stroke:#181818;stroke-width:0.5;" width="107.1309" x="1765.5" y="145"/><text fill="#000000" font-family="sans-serif" font-size="14" lengthAdjust="spacing" textLength="87.1309" x="1775.5" y="169.5332">DC Kamera H</text></g><!--entity DC Web Server 4--><g id="elem_DC Web Server 4"><rect fill="#F1F1F1" height="37.6094" rx="2.5" ry="2.5" style="stroke:#181818;stroke-width:0.5;" width="129.6963" x="1800" y="261"/><text fill="#000000" font-family="sans-serif" font-size="14" lengthAdjust="spacing" textLength="109.6963" x="1810" y="285.5332">DC Web Server 4</text></g><!--entity DC Kamera K--><g id="elem_DC Kamera K"><rect fill="#F1F1F1" height="37.6094" rx="2.5" ry="2.5" style="stroke:#181818;stroke-width:0.5;" width="106.3584" x="1908" y="145"/><text fill="#000000" font-family="sans-serif" font-size="14" lengthAdjust="spacing" textLength="86.3584" x="1918" y="169.5332">DC Kamera K</text></g><!--entity DC Bluetooth 4--><g id="elem_DC Bluetooth 4"><rect fill="#F1F1F1" height="37.6094" rx="2.5" ry="2.5" style="stroke:#181818;stroke-width:0.5;" width="114.9443" x="2049.5" y="145"/><text fill="#000000" font-family="sans-serif" font-size="14" lengthAdjust="spacing" textLength="94.9443" x="2059.5" y="169.5332">DC Bluetooth 4</text></g><!--entity Kamera A--><g id="elem_Kamera A"><rect fill="#F1F1F1" height="37.6094" rx="2.5" ry="2.5" style="stroke:#181818;stroke-width:0.5;" width="82.248" x="35" y="7"/><text fill="#000000" font-family="sans-serif" font-size="14" lengthAdjust="spacing" textLength="62.248" x="45" y="31.5332">Kamera A</text></g><!--entity Kamera B--><g id="elem_Kamera B"><rect fill="#F1F1F1" height="37.6094" rx="2.5" ry="2.5" style="stroke:#181818;stroke-width:0.5;" width="82.248" x="176" y="7"/><text fill="#000000" font-family="sans-serif" font-size="14" lengthAdjust="spacing" textLength="62.248" x="186" y="31.5332">Kamera B</text></g><!--entity Kamera D--><g id="elem_Kamera D"><rect fill="#F1F1F1" height="37.6094" rx="2.5" ry="2.5" style="stroke:#181818;stroke-width:0.5;" width="83.0205" x="609.5" y="7"/><text fill="#000000" font-family="sans-serif" font-size="14" lengthAdjust="spacing" textLength="63.0205" x="619.5" y="31.5332">Kamera D</text></g><!--entity Kamera E--><g id="elem_Kamera E"><rect fill="#F1F1F1" height="37.6094" rx="2.5" ry="2.5" style="stroke:#181818;stroke-width:0.5;" width="82.248" x="752" y="7"/><text fill="#000000" font-family="sans-serif" font-size="14" lengthAdjust="spacing" textLength="62.248" x="762" y="31.5332">Kamera E</text></g><!--entity Kamera F--><g id="elem_Kamera F"><rect fill="#F1F1F1" height="37.6094" rx="2.5" ry="2.5" style="stroke:#181818;stroke-width:0.5;" width="81.4619" x="1197.5" y="7"/><text fill="#000000" font-family="sans-serif" font-size="14" lengthAdjust="spacing" textLength="61.4619" x="1207.5" y="31.5332">Kamera F</text></g><!--entity Kamera G--><g id="elem_Kamera G"><rect fill="#F1F1F1" height="37.6094" rx="2.5" ry="2.5" style="stroke:#181818;stroke-width:0.5;" width="83.7998" x="1338" y="7"/><text fill="#000000" font-family="sans-serif" font-size="14" lengthAdjust="spacing" textLength="63.7998" x="1348" y="31.5332">Kamera G</text></g><!--entity Kamera H--><g id="elem_Kamera H"><rect fill="#F1F1F1" height="37.6094" rx="2.5" ry="2.5" style="stroke:#181818;stroke-width:0.5;" width="83.0205" x="1777.5" y="7"/><text fill="#000000" font-family="sans-serif" font-size="14" lengthAdjust="spacing" textLength="63.0205" x="1787.5" y="31.5332">Kamera H</text></g><!--entity Kamera K--><g id="elem_Kamera K"><rect fill="#F1F1F1" height="37.6094" rx="2.5" ry="2.5" style="stroke:#181818;stroke-width:0.5;" width="82.248" x="1920" y="7"/><text fill="#000000" font-family="sans-serif" font-size="14" lengthAdjust="spacing" textLength="62.248" x="1930" y="31.5332">Kamera K</text></g><!--entity PositionUnit A-D--><g id="elem_PositionUnit A-D"><rect fill="#F1F1F1" height="37.6094" rx="2.5" ry="2.5" style="stroke:#181818;stroke-width:0.5;" width="122.7031" x="441.5" y="261"/><text fill="#000000" font-family="sans-serif" font-size="14" lengthAdjust="spacing" textLength="102.7031" x="451.5" y="285.5332">PositionUnit A-D</text></g><!--entity PositionUnit E-H--><g id="elem_PositionUnit E-H"><rect fill="#F1F1F1" height="37.6094" rx="2.5" ry="2.5" style="stroke:#181818;stroke-width:0.5;" width="122.7031" x="1029.5" y="261"/><text fill="#000000" font-family="sans-serif" font-size="14" lengthAdjust="spacing" textLength="102.7031" x="1039.5" y="285.5332">PositionUnit E-H</text></g><!--entity PositionUnit I-K--><g id="elem_PositionUnit I-K"><rect fill="#F1F1F1" height="37.6094" rx="2.5" ry="2.5" style="stroke:#181818;stroke-width:0.5;" width="116.4824" x="1617" y="261"/><text fill="#000000" font-family="sans-serif" font-size="14" lengthAdjust="spacing" textLength="96.4824" x="1627" y="285.5332">PositionUnit I-K</text></g><!--entity PositionUnit L-O--><g id="elem_PositionUnit L-O"><rect fill="#F1F1F1" height="37.6094" rx="2.5" ry="2.5" style="stroke:#181818;stroke-width:0.5;" width="121.9307" x="2197" y="261"/><text fill="#000000" font-family="sans-serif" font-size="14" lengthAdjust="spacing" textLength="101.9307" x="2207" y="285.5332">PositionUnit L-O</text></g><!--link DC Kamera B to DC Web Server--><g id="link_DC Kamera B_DC Web Server"><path d="M236.4411,187.6101 C254.6811,208.8301 276.9581,234.7506 295.3081,256.0906 " fill="none" id="DC Kamera B-DC Web Server" style="stroke:#181818;stroke-width:1;"/><polygon fill="#181818" points="232.53,183.06,235.3633,192.4925,235.7893,186.8517,241.43,187.2777,232.53,183.06" style="stroke:#181818;stroke-width:1;"/><polygon fill="#181818" points="299.22,260.64,296.385,251.208,295.96,256.8489,290.3192,256.4239,299.22,260.64" style="stroke:#181818;stroke-width:1;"/></g><!--link DC Kamera A to DC Web Server--><g id="link_DC Kamera A_DC Web Server"><path d="M119.2852,185.6438 C163.9052,206.9338 226.7847,236.9165 271.4947,258.2465 " fill="none" id="DC Kamera A-DC Web Server" style="stroke:#181818;stroke-width:1;"/><polygon fill="#181818" points="113.87,183.06,120.2702,190.5458,118.3826,185.2132,123.7153,183.3256,113.87,183.06" style="stroke:#181818;stroke-width:1;"/><polygon fill="#181818" points="276.91,260.83,270.5094,253.3445,272.3972,258.6771,267.0647,260.5649,276.91,260.83" style="stroke:#181818;stroke-width:1;"/></g><!--link DC Web Server to Main System--><g id="link_DC Web Server_Main System"><path d="M360.1092,301.4297 C380.4492,309.9997 400.35,317.26 424,323 C653.84,378.82 931.7926,392.4027 1045.4726,395.7627 " fill="none" id="DC Web Server-Main System" style="stroke:#181818;stroke-width:1;stroke-dasharray:7.0,7.0;"/><polygon fill="#181818" points="354.58,299.1,361.3208,306.2807,359.1877,301.0414,364.427,298.9084,354.58,299.1" style="stroke:#181818;stroke-width:1;"/><polygon fill="#181818" points="1051.47,395.94,1042.5921,391.6759,1046.4722,395.7923,1042.3558,399.6724,1051.47,395.94" style="stroke:#181818;stroke-width:1;"/><text fill="#000000" font-family="sans-serif" font-size="13" lengthAdjust="spacing" textLength="113.9341" x="535" y="345.4951">REST api | ethernet</text></g><!--link DC Bluetooth to DC Web Server--><g id="link_DC Bluetooth_DC Web Server"><path d="M348.2676,188.6907 C340.4576,209.9107 331.7061,233.6706 323.8361,255.0106 " fill="none" id="DC Bluetooth-DC Web Server" style="stroke:#181818;stroke-width:1;"/><polygon fill="#181818" points="350.34,183.06,343.4776,190.1245,348.613,187.7523,350.9852,192.8877,350.34,183.06" style="stroke:#181818;stroke-width:1;"/><polygon fill="#181818" points="321.76,260.64,328.627,253.58,323.4901,255.9488,321.1212,250.8119,321.76,260.64" style="stroke:#181818;stroke-width:1;"/></g><!--link DC Kamera D to DC Web Server 2--><g id="link_DC Kamera D_DC Web Server 2"><path d="M694.4494,185.6349 C739.2594,206.9249 802.4305,236.9254 847.3305,258.2554 " fill="none" id="DC Kamera D-DC Web Server 2" style="stroke:#181818;stroke-width:1;"/><polygon fill="#181818" points="689.03,183.06,695.4426,190.5352,693.5462,185.2057,698.8757,183.3093,689.03,183.06" style="stroke:#181818;stroke-width:1;"/><polygon fill="#181818" points="852.75,260.83,846.3371,253.3551,848.2337,258.6845,842.9043,260.5812,852.75,260.83" style="stroke:#181818;stroke-width:1;"/></g><!--link DC Kamera E to DC Web Server 2--><g id="link_DC Kamera E_DC Web Server 2"><path d="M812.4411,187.6101 C830.6811,208.8301 852.9581,234.7506 871.3081,256.0906 " fill="none" id="DC Kamera E-DC Web Server 2" style="stroke:#181818;stroke-width:1;"/><polygon fill="#181818" points="808.53,183.06,811.3633,192.4925,811.7893,186.8517,817.43,187.2777,808.53,183.06" style="stroke:#181818;stroke-width:1;"/><polygon fill="#181818" points="875.22,260.64,872.385,251.208,871.96,256.8489,866.3192,256.4239,875.22,260.64" style="stroke:#181818;stroke-width:1;"/></g><!--link DC Web Server 2 to Main System--><g id="link_DC Web Server 2_Main System"><path d="M929.2276,302.0109 C968.7476,323.7409 1024.0822,354.1594 1063.6622,375.9194 " fill="none" id="DC Web Server 2-Main System" style="stroke:#181818;stroke-width:1;stroke-dasharray:7.0,7.0;"/><polygon fill="#181818" points="923.97,299.12,929.9292,306.9614,928.3514,301.5291,933.7837,299.9513,923.97,299.12" style="stroke:#181818;stroke-width:1;"/><polygon fill="#181818" points="1068.92,378.81,1062.9604,370.9689,1064.5385,376.4012,1059.1062,377.9793,1068.92,378.81" style="stroke:#181818;stroke-width:1;"/><text fill="#000000" font-family="sans-serif" font-size="13" lengthAdjust="spacing" textLength="113.9341" x="1010" y="345.4951">REST api | ethernet</text></g><!--link DC Bluetooth 2 to DC Web Server 2--><g id="link_DC Bluetooth 2_DC Web Server 2"><path d="M929.0627,188.5903 C920.1327,209.8103 910.0494,233.7706 901.0594,255.1106 " fill="none" id="DC Bluetooth 2-DC Web Server 2" style="stroke:#181818;stroke-width:1;"/><polygon fill="#181818" points="931.39,183.06,924.2122,189.8039,929.4506,187.6685,931.5859,192.9069,931.39,183.06" style="stroke:#181818;stroke-width:1;"/><polygon fill="#181818" points="898.73,260.64,905.9103,253.8989,900.6712,256.0322,898.5378,250.793,898.73,260.64" style="stroke:#181818;stroke-width:1;"/></g><!--link DC Kamera F to DC Web Server 3--><g id="link_DC Kamera F_DC Web Server 3"><path d="M1247.7373,188.6069 C1256.4873,209.8269 1266.3426,233.7531 1275.1426,255.0931 " fill="none" id="DC Kamera F-DC Web Server 3" style="stroke:#181818;stroke-width:1;"/><polygon fill="#181818" points="1245.45,183.06,1245.1829,192.9052,1247.356,187.6824,1252.5788,189.8556,1245.45,183.06" style="stroke:#181818;stroke-width:1;"/><polygon fill="#181818" points="1277.43,260.64,1277.6969,250.7948,1275.5239,256.0176,1270.301,253.8446,1277.43,260.64" style="stroke:#181818;stroke-width:1;"/></g><!--link DC Kamera G to DC Web Server 3--><g id="link_DC Kamera G_DC Web Server 3"><path d="M1361.108,187.6686 C1343.418,208.8886 1321.932,234.6914 1304.142,256.0314 " fill="none" id="DC Kamera G-DC Web Server 3" style="stroke:#181818;stroke-width:1;"/><polygon fill="#181818" points="1364.95,183.06,1356.1146,187.4116,1361.7484,186.9005,1362.2595,192.5342,1364.95,183.06" style="stroke:#181818;stroke-width:1;"/><polygon fill="#181818" points="1300.3,260.64,1309.1353,256.2884,1303.5016,256.7995,1302.9905,251.1658,1300.3,260.64" style="stroke:#181818;stroke-width:1;"/></g><!--link DC Web Server 3 to Main System--><g id="link_DC Web Server 3_Main System"><path d="M1251.3424,302.3324 C1217.0624,324.0624 1170.0877,353.8378 1135.7577,375.5978 " fill="none" id="DC Web Server 3-Main System" style="stroke:#181818;stroke-width:1;stroke-dasharray:7.0,7.0;"/><polygon fill="#181818" points="1256.41,299.12,1246.667,300.5601,1252.187,301.797,1250.9501,307.3169,1256.41,299.12" style="stroke:#181818;stroke-width:1;"/><polygon fill="#181818" points="1130.69,378.81,1140.4331,377.3702,1134.9131,376.1332,1136.1502,370.6132,1130.69,378.81" style="stroke:#181818;stroke-width:1;"/><text fill="#000000" font-family="sans-serif" font-size="13" lengthAdjust="spacing" textLength="113.9341" x="1205" y="345.4951">REST api | ethernet</text></g><!--link DC Bluetooth 3 to DC Web Server 3--><g id="link_DC Bluetooth 3_DC Web Server 3"><path d="M1483.2224,185.6176 C1438.0424,206.9076 1374.2677,236.9426 1328.9977,258.2726 " fill="none" id="DC Bluetooth 3-DC Web Server 3" style="stroke:#181818;stroke-width:1;"/><polygon fill="#181818" points="1488.65,183.06,1478.8036,183.278,1484.127,185.1913,1482.2137,190.5148,1488.65,183.06" style="stroke:#181818;stroke-width:1;"/><polygon fill="#181818" points="1323.57,260.83,1333.4165,260.6124,1328.0931,258.6988,1330.0066,253.3755,1323.57,260.83" style="stroke:#181818;stroke-width:1;"/></g><!--link DC Kamera H to DC Web Server 4--><g id="link_DC Kamera H_DC Web Server 4"><path d="M1828.5346,188.6243 C1837.0946,209.8443 1846.735,233.7358 1855.345,255.0758 " fill="none" id="DC Kamera H-DC Web Server 4" style="stroke:#181818;stroke-width:1;"/><polygon fill="#181818" points="1826.29,183.06,1825.9474,192.9029,1828.1605,187.6969,1833.3665,189.9101,1826.29,183.06" style="stroke:#181818;stroke-width:1;"/><polygon fill="#181818" points="1857.59,260.64,1857.932,250.7971,1855.7192,256.0032,1850.5131,253.7904,1857.59,260.64" style="stroke:#181818;stroke-width:1;"/></g><!--link DC Kamera K to DC Web Server 4--><g id="link_DC Kamera K_DC Web Server 4"><path d="M1941.9251,187.6494 C1924.0551,208.8694 1902.2947,234.7105 1884.3247,256.0505 " fill="none" id="DC Kamera K-DC Web Server 4" style="stroke:#181818;stroke-width:1;"/><polygon fill="#181818" points="1945.79,183.06,1936.9331,187.3675,1942.5693,186.8845,1943.0523,192.5207,1945.79,183.06" style="stroke:#181818;stroke-width:1;"/><polygon fill="#181818" points="1880.46,260.64,1889.3168,256.3322,1883.6806,256.8154,1883.1974,251.1792,1880.46,260.64" style="stroke:#181818;stroke-width:1;"/></g><!--link DC Web Server 4 to Main System--><g id="link_DC Web Server 4_Main System"><path d="M1817.9418,301.2451 C1796.6418,309.7951 1775.63,317.15 1751,323 C1532.27,374.97 1269.095,390.5849 1158.785,395.0949 " fill="none" id="DC Web Server 4-Main System" style="stroke:#181818;stroke-width:1;stroke-dasharray:7.0,7.0;"/><polygon fill="#181818" points="1823.51,299.01,1813.6677,298.6506,1818.8699,300.8726,1816.6478,306.0748,1823.51,299.01" style="stroke:#181818;stroke-width:1;"/><polygon fill="#181818" points="1152.79,395.34,1161.9459,398.969,1157.7858,395.1357,1161.6191,390.9757,1152.79,395.34" style="stroke:#181818;stroke-width:1;"/><text fill="#000000" font-family="sans-serif" font-size="13" lengthAdjust="spacing" textLength="113.9341" x="1700" y="345.4951">REST api | ethernet</text></g><!--link DC Bluetooth 4 to DC Web Server 4--><g id="link_DC Bluetooth 4_DC Web Server 4"><path d="M2063.2224,185.6176 C2018.0424,206.9076 1954.2677,236.9426 1908.9977,258.2726 " fill="none" id="DC Bluetooth 4-DC Web Server 4" style="stroke:#181818;stroke-width:1;"/><polygon fill="#181818" points="2068.65,183.06,2058.8036,183.278,2064.127,185.1913,2062.2137,190.5148,2068.65,183.06" style="stroke:#181818;stroke-width:1;"/><polygon fill="#181818" points="1903.57,260.83,1913.4165,260.6124,1908.0931,258.6988,1910.0066,253.3755,1903.57,260.83" style="stroke:#181818;stroke-width:1;"/></g><!--link Kamera A to DC Kamera A--><g id="link_Kamera A_DC Kamera A"><path d="M76,51.06 C76,77.07 76,112.81 76,138.87 " fill="none" id="Kamera A-DC Kamera A" style="stroke:#181818;stroke-width:1;"/><polygon fill="#181818" points="76,45.06,72,54.06,76,50.06,80,54.06,76,45.06" style="stroke:#181818;stroke-width:1;"/><polygon fill="#181818" points="76,144.87,80,135.87,76,139.87,72,135.87,76,144.87" style="stroke:#181818;stroke-width:1;"/><text fill="#000000" font-family="sans-serif" font-size="13" lengthAdjust="spacing" textLength="42.6118" x="77" y="89.4951">COM A</text></g><!--link Kamera B to DC Kamera B--><g id="link_Kamera B_DC Kamera B"><path d="M217,51.06 C217,77.07 217,112.81 217,138.87 " fill="none" id="Kamera B-DC Kamera B" style="stroke:#181818;stroke-width:1;"/><polygon fill="#181818" points="217,45.06,213,54.06,217,50.06,221,54.06,217,45.06" style="stroke:#181818;stroke-width:1;"/><polygon fill="#181818" points="217,144.87,221,135.87,217,139.87,213,135.87,217,144.87" style="stroke:#181818;stroke-width:1;"/><text fill="#000000" font-family="sans-serif" font-size="13" lengthAdjust="spacing" textLength="42.6118" x="218" y="89.4951">COM B</text></g><!--link Kamera D to DC Kamera D--><g id="link_Kamera D_DC Kamera D"><path d="M651,51.06 C651,77.07 651,112.81 651,138.87 " fill="none" id="Kamera D-DC Kamera D" style="stroke:#181818;stroke-width:1;"/><polygon fill="#181818" points="651,45.06,647,54.06,651,50.06,655,54.06,651,45.06" style="stroke:#181818;stroke-width:1;"/><polygon fill="#181818" points="651,144.87,655,135.87,651,139.87,647,135.87,651,144.87" style="stroke:#181818;stroke-width:1;"/><text fill="#000000" font-family="sans-serif" font-size="13" lengthAdjust="spacing" textLength="42.6118" x="652" y="89.4951">COM A</text></g><!--link Kamera E to DC Kamera E--><g id="link_Kamera E_DC Kamera E"><path d="M793,51.06 C793,77.07 793,112.81 793,138.87 " fill="none" id="Kamera E-DC Kamera E" style="stroke:#181818;stroke-width:1;"/><polygon fill="#181818" points="793,45.06,789,54.06,793,50.06,797,54.06,793,45.06" style="stroke:#181818;stroke-width:1;"/><polygon fill="#181818" points="793,144.87,797,135.87,793,139.87,789,135.87,793,144.87" style="stroke:#181818;stroke-width:1;"/><text fill="#000000" font-family="sans-serif" font-size="13" lengthAdjust="spacing" textLength="42.6118" x="794" y="89.4951">COM B</text></g><!--link Kamera F to DC Kamera F--><g id="link_Kamera F_DC Kamera F"><path d="M1238,51.06 C1238,77.07 1238,112.81 1238,138.87 " fill="none" id="Kamera F-DC Kamera F" style="stroke:#181818;stroke-width:1;"/><polygon fill="#181818" points="1238,45.06,1234,54.06,1238,50.06,1242,54.06,1238,45.06" style="stroke:#181818;stroke-width:1;"/><polygon fill="#181818" points="1238,144.87,1242,135.87,1238,139.87,1234,135.87,1238,144.87" style="stroke:#181818;stroke-width:1;"/><text fill="#000000" font-family="sans-serif" font-size="13" lengthAdjust="spacing" textLength="42.6118" x="1239" y="89.4951">COM A</text></g><!--link Kamera G to DC Kamera G--><g id="link_Kamera G_DC Kamera G"><path d="M1380,51.06 C1380,77.07 1380,112.81 1380,138.87 " fill="none" id="Kamera G-DC Kamera G" style="stroke:#181818;stroke-width:1;"/><polygon fill="#181818" points="1380,45.06,1376,54.06,1380,50.06,1384,54.06,1380,45.06" style="stroke:#181818;stroke-width:1;"/><polygon fill="#181818" points="1380,144.87,1384,135.87,1380,139.87,1376,135.87,1380,144.87" style="stroke:#181818;stroke-width:1;"/><text fill="#000000" font-family="sans-serif" font-size="13" lengthAdjust="spacing" textLength="42.6118" x="1381" y="89.4951">COM B</text></g><!--link Kamera H to DC Kamera H--><g id="link_Kamera H_DC Kamera H"><path d="M1819,51.06 C1819,77.07 1819,112.81 1819,138.87 " fill="none" id="Kamera H-DC Kamera H" style="stroke:#181818;stroke-width:1;"/><polygon fill="#181818" points="1819,45.06,1815,54.06,1819,50.06,1823,54.06,1819,45.06" style="stroke:#181818;stroke-width:1;"/><polygon fill="#181818" points="1819,144.87,1823,135.87,1819,139.87,1815,135.87,1819,144.87" style="stroke:#181818;stroke-width:1;"/><text fill="#000000" font-family="sans-serif" font-size="13" lengthAdjust="spacing" textLength="42.6118" x="1820" y="89.4951">COM A</text></g><!--link Kamera K to DC Kamera K--><g id="link_Kamera K_DC Kamera K"><path d="M1961,51.06 C1961,77.07 1961,112.81 1961,138.87 " fill="none" id="Kamera K-DC Kamera K" style="stroke:#181818;stroke-width:1;"/><polygon fill="#181818" points="1961,45.06,1957,54.06,1961,50.06,1965,54.06,1961,45.06" style="stroke:#181818;stroke-width:1;"/><polygon fill="#181818" points="1961,144.87,1965,135.87,1961,139.87,1957,135.87,1961,144.87" style="stroke:#181818;stroke-width:1;"/><text fill="#000000" font-family="sans-serif" font-size="13" lengthAdjust="spacing" textLength="42.6118" x="1962" y="89.4951">COM B</text></g><!--link DC Bluetooth to PositionUnit A-D--><g id="link_DC Bluetooth_PositionUnit A-D"><path d="M384.8594,186.7523 C412.0394,207.9723 447.4202,235.6082 474.7602,256.9482 " fill="none" id="DC Bluetooth-PositionUnit A-D" style="stroke:#181818;stroke-width:1;stroke-dasharray:7.0,7.0;"/><polygon fill="#181818" points="380.13,183.06,384.7625,191.7514,384.0711,186.1369,389.6856,185.4456,380.13,183.06" style="stroke:#181818;stroke-width:1;"/><polygon fill="#181818" points="479.49,260.64,474.8565,251.9491,475.5485,257.5635,469.9342,258.2555,479.49,260.64" style="stroke:#181818;stroke-width:1;"/><text fill="#000000" font-family="sans-serif" font-size="13" lengthAdjust="spacing" textLength="46.9536" x="440" y="227.4951">wireless</text></g><!--link DC Bluetooth 2 to PositionUnit E-H--><g id="link_DC Bluetooth 2_PositionUnit E-H"><path d="M967.8796,186.6605 C996.2596,207.9505 1033.54,235.9 1061.98,257.23 " fill="none" id="DC Bluetooth 2-PositionUnit E-H" style="stroke:#181818;stroke-width:1;stroke-dasharray:7.0,7.0;"/><polygon fill="#181818" points="963.08,183.06,967.879,191.6605,967.0797,186.0605,972.6798,185.2611,963.08,183.06" style="stroke:#181818;stroke-width:1;"/><polygon fill="#181818" points="1066.78,260.83,1061.98,252.23,1062.78,257.83,1057.18,258.63,1066.78,260.83" style="stroke:#181818;stroke-width:1;"/><text fill="#000000" font-family="sans-serif" font-size="13" lengthAdjust="spacing" textLength="46.9536" x="1025" y="227.4951">wireless</text></g><!--link DC Bluetooth 3 to PositionUnit I-K--><g id="link_DC Bluetooth 3_PositionUnit I-K"><path d="M1555.2034,186.7213 C1582.7534,207.9413 1618.7063,235.6391 1646.4163,256.9791 " fill="none" id="DC Bluetooth 3-PositionUnit I-K" style="stroke:#181818;stroke-width:1;stroke-dasharray:7.0,7.0;"/><polygon fill="#181818" points="1550.45,183.06,1555.1393,191.7209,1554.4112,186.1111,1560.021,185.3829,1550.45,183.06" style="stroke:#181818;stroke-width:1;"/><polygon fill="#181818" points="1651.17,260.64,1646.4801,251.9795,1647.2086,257.5892,1641.5988,258.3178,1651.17,260.64" style="stroke:#181818;stroke-width:1;"/><text fill="#000000" font-family="sans-serif" font-size="13" lengthAdjust="spacing" textLength="46.9536" x="1610" y="227.4951">wireless</text></g><!--link DC Bluetooth 4 to PositionUnit L-O--><g id="link_DC Bluetooth 4_PositionUnit L-O"><path d="M2135.7179,186.676 C2163.9079,207.966 2200.9016,235.8846 2229.1516,257.2146 " fill="none" id="DC Bluetooth 4-PositionUnit L-O" style="stroke:#181818;stroke-width:1;stroke-dasharray:7.0,7.0;"/><polygon fill="#181818" points="2130.93,183.06,2135.7012,191.676,2134.92,186.0733,2140.5226,185.2921,2130.93,183.06" style="stroke:#181818;stroke-width:1;"/><polygon fill="#181818" points="2233.94,260.83,2229.1677,252.2146,2229.9497,257.8171,2224.3471,258.5991,2233.94,260.83" style="stroke:#181818;stroke-width:1;"/><text fill="#000000" font-family="sans-serif" font-size="13" lengthAdjust="spacing" textLength="46.9536" x="2192" y="227.4951">wireless</text></g><rect fill="#DDDDDD" height="102.0469" id="_legend" rx="7.5" ry="7.5" style="stroke:#000000;stroke-width:1;" width="650.2607" x="830.335" y="433.6094"/><text fill="#000000" font-family="sans-serif" font-size="14" font-weight="bold" lengthAdjust="spacing" textLength="7.7793" x="835.335" y="455.1426">&#160;&#160;</text><text fill="#000000" font-family="sans-serif" font-size="14" font-weight="bold" lengthAdjust="spacing" textLength="77.0137" x="934.9482" y="455.1426">Description</text><text fill="#000000" font-family="sans-serif" font-size="14" lengthAdjust="spacing" textLength="20.2207" x="839.2246" y="472.752">DC</text><text fill="#000000" font-family="sans-serif" font-size="14" lengthAdjust="spacing" textLength="108.9375" x="934.9482" y="472.752">Docker Container</text><text fill="#000000" font-family="sans-serif" font-size="14" lengthAdjust="spacing" textLength="45.8896" x="839.2246" y="490.3613">COM X</text><text fill="#000000" font-family="sans-serif" font-size="14" lengthAdjust="spacing" textLength="161.0957" x="934.9482" y="490.3613">USB connection on port X</text><text fill="#000000" font-family="sans-serif" font-size="14" lengthAdjust="spacing" textLength="87.9443" x="839.2246" y="507.9707">DC BLuetooth</text><text fill="#000000" font-family="sans-serif" font-size="14" lengthAdjust="spacing" textLength="220.2334" x="934.9482" y="507.9707">process with bluetooth functionalitis</text><text fill="#000000" font-family="sans-serif" font-size="14" lengthAdjust="spacing" textLength="80.9102" x="839.2246" y="525.5801">Main System</text><text fill="#000000" font-family="sans-serif" font-size="14" lengthAdjust="spacing" textLength="536.7578" x="934.9482" y="525.5801">"classic" desktop with unity &amp; with power for generate a model out of collected Pictures</text><line style="stroke:#000000;stroke-width:1;" x1="835.335" x2="1475.5957" y1="440.6094" y2="440.6094"/><line style="stroke:#000000;stroke-width:1;" x1="835.335" x2="1475.5957" y1="458.2188" y2="458.2188"/><line style="stroke:#000000;stroke-width:1;" x1="835.335" x2="1475.5957" y1="475.8281" y2="475.8281"/><line style="stroke:#000000;stroke-width:1;" x1="835.335" x2="1475.5957" y1="493.4375" y2="493.4375"/><line style="stroke:#000000;stroke-width:1;" x1="835.335" x2="1475.5957" y1="511.0469" y2="511.0469"/><line style="stroke:#000000;stroke-width:1;" x1="835.335" x2="1475.5957" y1="528.6563" y2="528.6563"/><line style="stroke:#000000;stroke-width:1;" x1="835.335" x2="835.335" y1="440.6094" y2="528.6563"/><line style="stroke:#000000;stroke-width:1;" x1="931.0586" x2="931.0586" y1="440.6094" y2="528.6563"/><line style="stroke:#000000;stroke-width:1;" x1="1475.5957" x2="1475.5957" y1="440.6094" y2="528.6563"/><!--SRC=[dPLTRzem58Rl-HL7N5JRHNfHkAgwIOG4CWLKD5fjKiM56mxK8jYHRLQXiV- -am1fS4oeG4JWy_7uVUFOqIikCgRO6ZAMhDWIfsQR8YXCJ4kNkKIkCobGc8yi4yiKMwr35xJ7Z0kORhN1THl-jlvLKbDKVr31bp5BOCm5_veN07rUWZx4R8sAWJ-31y_xNeH-uIliUsPsMUz2MIK63xUtL5ZHDRl_6KwVW6KSTe3c3PL0KxRwwGQDbERjp1HDZkvSbW8d2EvgfiABXIVHguqLlUw9NEP6p1YSC36ds-xoDt3JEZL_muk59z7h_NNEJdJ1d-_o5xbftPg_-6BXIVHwVzsp4rNz7RTAQScnTyhGFVGVnz1p0NmRuDS1_W7Wkm213GZgWA19GMW3mZeWR58mi063Ec3Gf61e0uPrmB19GMG3eZeWQb8Gsu2u3eYT2YPISyEbU1RSGCyxh8Pzr1NFebrAl7UkC4MjpoD3Bt8WFmuek_XJq1zUx89sd50g_XHqv3swe5qdb8ejQ8fB5FDY4NRVYYj0dIYUvJsmsoSWwDCbanLjoBuKXdOt_JicyzNvJR_FKvzUfaBG2pJlfMycbSbJ9GNyqL7W3Z8b4r91ScZuMYfVR4G1O2dfrcLpvKYXKJj9cTOyQSCSzSh8R4_PaCajtEm7cNmdbGkfW2pIesGG6Apb75EG6mDoGMhJbDJY72OyCHk5-NHqEmutvJy0]--></g></svg>