<svg xmlns="http://www.w3.org/2000/svg" xmlns:xlink="http://www.w3.org/1999/xlink" contentStyleType="text/css" height="624px" preserveAspectRatio="none" style="width:1658px;height:624px;background:#FFFFFF;" version="1.1" viewBox="0 0 1658 624" width="1658px" zoomAndPan="magnify"><defs/><g><rect fill="#FFFFFF" height="349.9932" style="stroke:#000000;stroke-width:1.0;" width="10" x="845.6938" y="174.4126"/><rect fill="#FFFFFF" height="115.3979" style="stroke:#000000;stroke-width:1.0;" width="10" x="1107.7808" y="247.0112"/><rect fill="#FFFFFF" height="102.3979" style="stroke:#000000;stroke-width:1.0;" width="10" x="1452.8867" y="392.2085"/><line style="stroke:#000000;stroke-width:1.0;" x1="28" x2="28" y1="83.0146" y2="542.4058"/><line style="stroke:#000000;stroke-width:1.0;" x1="213.3008" x2="213.3008" y1="83.0146" y2="542.4058"/><line style="stroke:#000000;stroke-width:1.0;" x1="381.4653" x2="381.4653" y1="83.0146" y2="542.4058"/><line style="stroke:#000000;stroke-width:1.0;" x1="537.2798" x2="537.2798" y1="83.0146" y2="542.4058"/><line style="stroke:#000000;stroke-width:1.0;" x1="700.1714" x2="700.1714" y1="83.0146" y2="542.4058"/><line style="stroke:#000000;stroke-width:1.0;" x1="849.769" x2="849.769" y1="83.0146" y2="542.4058"/><line style="stroke:#000000;stroke-width:1.0;" x1="1112.626" x2="1112.626" y1="83.0146" y2="542.4058"/><line style="stroke:#000000;stroke-width:1.0;" x1="1457.8618" x2="1457.8618" y1="83.0146" y2="542.4058"/><text fill="#000000" font-family="Verdana" font-size="14" lengthAdjust="spacing" textLength="31.8555" x="10" y="80.0752">User</text><ellipse cx="28.9277" cy="14" fill="#FFFFFF" rx="8" ry="8" style="stroke:#000000;stroke-width:1.0;"/><path d="M28.9277,22 L28.9277,49 M15.9277,30 L41.9277,30 M28.9277,49 L15.9277,64 M28.9277,49 L41.9277,64 " fill="none" style="stroke:#000000;stroke-width:1.0;"/><text fill="#000000" font-family="Verdana" font-size="14" lengthAdjust="spacing" textLength="31.8555" x="10" y="555.481">User</text><ellipse cx="28.9277" cy="567.4204" fill="#FFFFFF" rx="8" ry="8" style="stroke:#000000;stroke-width:1.0;"/><path d="M28.9277,575.4204 L28.9277,602.4204 M15.9277,583.4204 L41.9277,583.4204 M28.9277,602.4204 L15.9277,617.4204 M28.9277,602.4204 L41.9277,617.4204 " fill="none" style="stroke:#000000;stroke-width:1.0;"/><rect fill="#FFFFFF" height="31.0146" rx="2.5" ry="2.5" style="stroke:#000000;stroke-width:1.0;" width="95.3613" x="166.3008" y="51"/><text fill="#000000" font-family="Verdana" font-size="14" lengthAdjust="spacing" textLength="81.3613" x="173.3008" y="72.0752">Tkinter GUI</text><rect fill="#FFFFFF" height="31.0146" rx="2.5" ry="2.5" style="stroke:#000000;stroke-width:1.0;" width="95.3613" x="166.3008" y="541.4058"/><text fill="#000000" font-family="Verdana" font-size="14" lengthAdjust="spacing" textLength="81.3613" x="173.3008" y="562.481">Tkinter GUI</text><rect fill="#FFFFFF" height="31.0146" rx="2.5" ry="2.5" style="stroke:#000000;stroke-width:1.0;" width="115.8145" x="324.4653" y="51"/><text fill="#000000" font-family="Verdana" font-size="14" lengthAdjust="spacing" textLength="101.8145" x="331.4653" y="72.0752">EventHandlers</text><rect fill="#FFFFFF" height="31.0146" rx="2.5" ry="2.5" style="stroke:#000000;stroke-width:1.0;" width="115.8145" x="324.4653" y="541.4058"/><text fill="#000000" font-family="Verdana" font-size="14" lengthAdjust="spacing" textLength="101.8145" x="331.4653" y="562.481">EventHandlers</text><rect fill="#FFFFFF" height="31.0146" rx="2.5" ry="2.5" style="stroke:#000000;stroke-width:1.0;" width="135.8916" x="470.2798" y="51"/><text fill="#000000" font-family="Verdana" font-size="14" lengthAdjust="spacing" textLength="121.8916" x="477.2798" y="72.0752">QueueOperations</text><rect fill="#FFFFFF" height="31.0146" rx="2.5" ry="2.5" style="stroke:#000000;stroke-width:1.0;" width="135.8916" x="470.2798" y="541.4058"/><text fill="#000000" font-family="Verdana" font-size="14" lengthAdjust="spacing" textLength="121.8916" x="477.2798" y="562.481">QueueOperations</text><rect fill="#FFFFFF" height="31.0146" rx="2.5" ry="2.5" style="stroke:#000000;stroke-width:1.0;" width="128.5977" x="636.1714" y="51"/><text fill="#000000" font-family="Verdana" font-size="14" lengthAdjust="spacing" textLength="114.5977" x="643.1714" y="72.0752">OperationQueue</text><rect fill="#FFFFFF" height="31.0146" rx="2.5" ry="2.5" style="stroke:#000000;stroke-width:1.0;" width="128.5977" x="636.1714" y="541.4058"/><text fill="#000000" font-family="Verdana" font-size="14" lengthAdjust="spacing" textLength="114.5977" x="643.1714" y="562.481">OperationQueue</text><rect fill="#FFFFFF" height="31.0146" rx="2.5" ry="2.5" style="stroke:#000000;stroke-width:1.0;" width="111.8496" x="794.769" y="51"/><text fill="#000000" font-family="Verdana" font-size="14" lengthAdjust="spacing" textLength="97.8496" x="801.769" y="72.0752">DeviceControl</text><rect fill="#FFFFFF" height="31.0146" rx="2.5" ry="2.5" style="stroke:#000000;stroke-width:1.0;" width="111.8496" x="794.769" y="541.4058"/><text fill="#000000" font-family="Verdana" font-size="14" lengthAdjust="spacing" textLength="97.8496" x="801.769" y="562.481">DeviceControl</text><rect fill="#FFFFFF" height="31.0146" rx="2.5" ry="2.5" style="stroke:#000000;stroke-width:1.0;" width="76.3096" x="1074.626" y="51"/><text fill="#000000" font-family="Verdana" font-size="14" lengthAdjust="spacing" textLength="62.3096" x="1081.626" y="72.0752">ApiClient</text><rect fill="#FFFFFF" height="31.0146" rx="2.5" ry="2.5" style="stroke:#000000;stroke-width:1.0;" width="76.3096" x="1074.626" y="541.4058"/><text fill="#000000" font-family="Verdana" font-size="14" lengthAdjust="spacing" textLength="62.3096" x="1081.626" y="562.481">ApiClient</text><rect fill="#FFFFFF" height="31.0146" rx="2.5" ry="2.5" style="stroke:#000000;stroke-width:1.0;" width="62.0498" x="1426.8618" y="51"/><text fill="#000000" font-family="Verdana" font-size="14" lengthAdjust="spacing" textLength="48.0498" x="1433.8618" y="72.0752">Logger</text><rect fill="#FFFFFF" height="31.0146" rx="2.5" ry="2.5" style="stroke:#000000;stroke-width:1.0;" width="62.0498" x="1426.8618" y="541.4058"/><text fill="#000000" font-family="Verdana" font-size="14" lengthAdjust="spacing" textLength="48.0498" x="1433.8618" y="562.481">Logger</text><rect fill="#FFFFFF" height="349.9932" style="stroke:#000000;stroke-width:1.0;" width="10" x="845.6938" y="174.4126"/><rect fill="#FFFFFF" height="115.3979" style="stroke:#000000;stroke-width:1.0;" width="10" x="1107.7808" y="247.0112"/><rect fill="#FFFFFF" height="102.3979" style="stroke:#000000;stroke-width:1.0;" width="10" x="1452.8867" y="392.2085"/><polygon fill="#000000" points="201.9814,110.814,211.9814,114.814,201.9814,118.814,205.9814,114.814" style="stroke:#000000;stroke-width:1.0;"/><line style="stroke:#000000;stroke-width:1.0;" x1="28.9277" x2="207.9814" y1="114.814" y2="114.814"/><text fill="#000000" font-family="Verdana" font-size="13" font-weight="bold" lengthAdjust="spacing" textLength="9.2422" x="35.9277" y="110.0845">1</text><text fill="#000000" font-family="Verdana" font-size="13" lengthAdjust="spacing" textLength="147.8115" x="49.1699" y="110.0845">Clicks "Execute Servo"</text><polygon fill="#000000" points="370.3726,140.6133,380.3726,144.6133,370.3726,148.6133,374.3726,144.6133" style="stroke:#000000;stroke-width:1.0;"/><line style="stroke:#000000;stroke-width:1.0;" x1="213.9814" x2="376.3726" y1="144.6133" y2="144.6133"/><text fill="#000000" font-family="Verdana" font-size="13" font-weight="bold" lengthAdjust="spacing" textLength="9.2422" x="220.9814" y="139.8838">2</text><text fill="#000000" font-family="Verdana" font-size="13" lengthAdjust="spacing" textLength="131.1489" x="234.2236" y="139.8838">on_servo_execute()</text><polygon fill="#000000" points="833.6938,170.4126,843.6938,174.4126,833.6938,178.4126,837.6938,174.4126" style="stroke:#000000;stroke-width:1.0;"/><line style="stroke:#000000;stroke-width:1.0;" x1="382.3726" x2="839.6938" y1="174.4126" y2="174.4126"/><text fill="#000000" font-family="Verdana" font-size="13" font-weight="bold" lengthAdjust="spacing" textLength="9.2422" x="389.3726" y="169.6831">3</text><text fill="#000000" font-family="Verdana" font-size="13" lengthAdjust="spacing" textLength="189.7061" x="402.6147" y="169.6831">servo_cmd() (in new thread)</text><line style="stroke:#000000;stroke-width:1.0;" x1="855.6938" x2="897.6938" y1="204.2119" y2="204.2119"/><line style="stroke:#000000;stroke-width:1.0;" x1="897.6938" x2="897.6938" y1="204.2119" y2="217.2119"/><line style="stroke:#000000;stroke-width:1.0;" x1="856.6938" x2="897.6938" y1="217.2119" y2="217.2119"/><polygon fill="#000000" points="866.6938,213.2119,856.6938,217.2119,866.6938,221.2119,862.6938,217.2119" style="stroke:#000000;stroke-width:1.0;"/><text fill="#000000" font-family="Verdana" font-size="13" font-weight="bold" lengthAdjust="spacing" textLength="9.2422" x="862.6938" y="199.4824">4</text><text fill="#000000" font-family="Verdana" font-size="13" lengthAdjust="spacing" textLength="200.7446" x="875.936" y="199.4824">Reads angle from GUI variable</text><polygon fill="#000000" points="1095.7808,243.0112,1105.7808,247.0112,1095.7808,251.0112,1099.7808,247.0112" style="stroke:#000000;stroke-width:1.0;"/><line style="stroke:#000000;stroke-width:1.0;" x1="855.6938" x2="1101.7808" y1="247.0112" y2="247.0112"/><text fill="#000000" font-family="Verdana" font-size="13" font-weight="bold" lengthAdjust="spacing" textLength="9.2422" x="862.6938" y="242.2817">5</text><text fill="#000000" font-family="Verdana" font-size="13" lengthAdjust="spacing" textLength="219.8447" x="875.936" y="242.2817">set_servo_angle(angle, base_url)</text><line style="stroke:#000000;stroke-width:1.0;" x1="1117.7808" x2="1159.7808" y1="276.8105" y2="276.8105"/><line style="stroke:#000000;stroke-width:1.0;" x1="1159.7808" x2="1159.7808" y1="276.8105" y2="289.8105"/><line style="stroke:#000000;stroke-width:1.0;" x1="1118.7808" x2="1159.7808" y1="289.8105" y2="289.8105"/><polygon fill="#000000" points="1128.7808,285.8105,1118.7808,289.8105,1128.7808,293.8105,1124.7808,289.8105" style="stroke:#000000;stroke-width:1.0;"/><text fill="#000000" font-family="Verdana" font-size="13" font-weight="bold" lengthAdjust="spacing" textLength="9.2422" x="1124.7808" y="272.0811">6</text><text fill="#000000" font-family="Verdana" font-size="13" lengthAdjust="spacing" textLength="297.8638" x="1138.0229" y="272.0811">make_request("setServo", params, base_url)</text><line style="stroke:#000000;stroke-width:1.0;" x1="1117.7808" x2="1159.7808" y1="319.6099" y2="319.6099"/><line style="stroke:#000000;stroke-width:1.0;" x1="1159.7808" x2="1159.7808" y1="319.6099" y2="332.6099"/><line style="stroke:#000000;stroke-width:1.0;" x1="1118.7808" x2="1159.7808" y1="332.6099" y2="332.6099"/><polygon fill="#000000" points="1128.7808,328.6099,1118.7808,332.6099,1128.7808,336.6099,1124.7808,332.6099" style="stroke:#000000;stroke-width:1.0;"/><text fill="#000000" font-family="Verdana" font-size="13" font-weight="bold" lengthAdjust="spacing" textLength="9.2422" x="1124.7808" y="314.8804">7</text><text fill="#000000" font-family="Verdana" font-size="13" lengthAdjust="spacing" textLength="166.1309" x="1138.0229" y="314.8804">Sends HTTP GET Request</text><polygon fill="#000000" points="866.6938,358.4092,856.6938,362.4092,866.6938,366.4092,862.6938,362.4092" style="stroke:#000000;stroke-width:1.0;"/><line style="stroke:#000000;stroke-width:1.0;stroke-dasharray:2.0,2.0;" x1="860.6938" x2="1111.7808" y1="362.4092" y2="362.4092"/><text fill="#000000" font-family="Verdana" font-size="13" font-weight="bold" lengthAdjust="spacing" textLength="9.2422" x="872.6938" y="357.6797">8</text><text fill="#000000" font-family="Verdana" font-size="13" lengthAdjust="spacing" textLength="169.2729" x="885.936" y="357.6797">Response (Success/Error)</text><polygon fill="#000000" points="1440.8867,388.2085,1450.8867,392.2085,1440.8867,396.2085,1444.8867,392.2085" style="stroke:#000000;stroke-width:1.0;"/><line style="stroke:#000000;stroke-width:1.0;" x1="855.6938" x2="1446.8867" y1="392.2085" y2="392.2085"/><text fill="#000000" font-family="Verdana" font-size="13" font-weight="bold" lengthAdjust="spacing" textLength="9.2422" x="862.6938" y="387.479">9</text><text fill="#000000" font-family="Verdana" font-size="13" lengthAdjust="spacing" textLength="148.5796" x="875.936" y="387.479">log("Servo: Angle X&#176;")</text><polygon fill="#000000" points="224.9814,418.0078,214.9814,422.0078,224.9814,426.0078,220.9814,422.0078" style="stroke:#000000;stroke-width:1.0;"/><line style="stroke:#000000;stroke-width:1.0;" x1="218.9814" x2="1451.8867" y1="422.0078" y2="422.0078"/><text fill="#000000" font-family="Verdana" font-size="13" font-weight="bold" lengthAdjust="spacing" textLength="18.4844" x="230.9814" y="417.2783">10</text><text fill="#000000" font-family="Verdana" font-size="13" lengthAdjust="spacing" textLength="136.6968" x="253.4658" y="417.2783">Updates Log Console</text><line style="stroke:#000000;stroke-width:1.0;" x1="1462.8867" x2="1504.8867" y1="451.8071" y2="451.8071"/><line style="stroke:#000000;stroke-width:1.0;" x1="1504.8867" x2="1504.8867" y1="451.8071" y2="464.8071"/><line style="stroke:#000000;stroke-width:1.0;" x1="1463.8867" x2="1504.8867" y1="464.8071" y2="464.8071"/><polygon fill="#000000" points="1473.8867,460.8071,1463.8867,464.8071,1473.8867,468.8071,1469.8867,464.8071" style="stroke:#000000;stroke-width:1.0;"/><text fill="#000000" font-family="Verdana" font-size="13" font-weight="bold" lengthAdjust="spacing" textLength="18.4844" x="1469.8867" y="447.0776">11</text><text fill="#000000" font-family="Verdana" font-size="13" lengthAdjust="spacing" textLength="159.4277" x="1492.3711" y="447.0776">_update_from_log(msg)</text><polygon fill="#000000" points="866.6938,490.6064,856.6938,494.6064,866.6938,498.6064,862.6938,494.6064" style="stroke:#000000;stroke-width:1.0;"/><line style="stroke:#000000;stroke-width:1.0;" x1="860.6938" x2="1456.8867" y1="494.6064" y2="494.6064"/><text fill="#000000" font-family="Verdana" font-size="13" font-weight="bold" lengthAdjust="spacing" textLength="18.4844" x="872.6938" y="489.877">12</text><text fill="#000000" font-family="Verdana" font-size="13" lengthAdjust="spacing" textLength="230.9531" x="895.1782" y="489.877">update_callback() (for GUI update)</text><polygon fill="#000000" points="224.9814,520.4058,214.9814,524.4058,224.9814,528.4058,220.9814,524.4058" style="stroke:#000000;stroke-width:1.0;"/><line style="stroke:#000000;stroke-width:1.0;" x1="218.9814" x2="849.6938" y1="524.4058" y2="524.4058"/><text fill="#000000" font-family="Verdana" font-size="13" font-weight="bold" lengthAdjust="spacing" textLength="18.4844" x="230.9814" y="519.6763">13</text><text fill="#000000" font-family="Verdana" font-size="13" lengthAdjust="spacing" textLength="175.6143" x="253.4658" y="519.6763">Updates Servo Angle Label</text><!--SRC=[NP9DZjim38NtEWNhbGrCqNqM1O8ac1GO89Cc0RepQ9dZ4I9BhdxS7gjdwCbAoPuaxiQmzJvIxv7-5Dwf9nWqAYCm1cjYtv0JA8DrSF7yEg0BIge1JO3dopT03yNvgamWbxwB1R3RPtqtaWbxDAqcvvV4yP29OwH8Xu4S1cNDVypXc9cRdE4bijraP4kZahIn9ZYhbyJwTVAw7jH6A_Qpb5zirt4waJB2vwyvsWgObDSKu3V960XEv4PRY2Gom-bMO4tjqsbD4rDMWizPPKihc2JPjsK5fJ9Ww1U4TqVOLY9DLOt8RRSRmVH7pNTMFQ3fDC6RittsCg9Js6YQmPGcTG_pvPaky_C96lHKHwUh-mtCYrHpA-tnIhMZdv5yA0jkD4Lx0XuAzlwnoQBkH8RDxS_dLtZUdTbhxZ0nzm1-u2KIbASe9Nd_PUUSTPLeQM5epZADdkkqxSeY-rZ1EiV_yVTFyP1YNj9SSDlIPMXPzKa6thstFAOxSsjVnypLQQPrkgltNVK0Pkyp8r7h1kKrhUtDvZzxbXOfFlwQASZIJGuovtZ1XlHZ8M_y7m00]--></g></svg>