<svg xmlns="http://www.w3.org/2000/svg" xmlns:xlink="http://www.w3.org/1999/xlink" contentStyleType="text/css" height="645px" preserveAspectRatio="none" style="width:440px;height:645px;background:#FFFFFF;" version="1.1" viewBox="0 0 440 645" width="440px" zoomAndPan="magnify"><defs/><g><ellipse cx="254.9524" cy="20" fill="#222222" rx="10" ry="10" style="stroke:#222222;stroke-width:1;"/><rect fill="#F1F1F1" height="35.0938" rx="12.5" ry="12.5" style="stroke:#181818;stroke-width:0.5;" width="146.7031" x="181.6008" y="50"/><text fill="#000000" font-family="sans-serif" font-size="12" lengthAdjust="spacing" textLength="126.7031" x="191.6008" y="72.457">Send POST/PUT JSON</text><polygon fill="#F1F1F1" points="216.729,105.0938,293.1758,105.0938,305.1758,117.0938,293.1758,129.0938,216.729,129.0938,204.729,117.0938,216.729,105.0938" style="stroke:#181818;stroke-width:0.5;"/><text fill="#000000" font-family="sans-serif" font-size="11" lengthAdjust="spacing" textLength="39.7354" x="258.9524" y="140.5127">success</text><text fill="#000000" font-family="sans-serif" font-size="11" lengthAdjust="spacing" textLength="76.4468" x="216.729" y="121.5947">Save input data</text><text fill="#000000" font-family="sans-serif" font-size="11" lengthAdjust="spacing" textLength="23.2246" x="305.1758" y="114.6768">error</text><ellipse cx="350.4004" cy="117.0938" fill="none" rx="11" ry="11" style="stroke:#222222;stroke-width:1;"/><ellipse cx="350.4004" cy="117.0938" fill="#222222" rx="6" ry="6" style="stroke:#222222;stroke-width:1;"/><rect fill="#F1F1F1" height="35.0938" rx="12.5" ry="12.5" style="stroke:#181818;stroke-width:0.5;" width="138.0605" x="185.9221" y="206.0127"/><text fill="#000000" font-family="sans-serif" font-size="12" lengthAdjust="spacing" textLength="118.0605" x="195.9221" y="228.4697">check status of device</text><polygon fill="#F1F1F1" points="177.9175,162.0127,331.9873,162.0127,343.9873,174.0127,331.9873,186.0127,177.9175,186.0127,165.9175,174.0127,177.9175,162.0127" style="stroke:#181818;stroke-width:0.5;"/><text fill="#000000" font-family="sans-serif" font-size="11" lengthAdjust="spacing" textLength="154.0698" x="177.9175" y="178.5137">Check IP address PositionUnits</text><text fill="#000000" font-family="sans-serif" font-size="11" lengthAdjust="spacing" textLength="151.019" x="14.8984" y="171.5957">no more IP addresses (in data)</text><rect fill="#F1F1F1" height="35.0938" rx="12.5" ry="12.5" style="stroke:#181818;stroke-width:0.5;" width="138.0605" x="185.9221" y="327.1064"/><text fill="#000000" font-family="sans-serif" font-size="12" lengthAdjust="spacing" textLength="118.0605" x="195.9221" y="349.5635">check status of device</text><polygon fill="#F1F1F1" points="173.019,283.1064,336.8857,283.1064,348.8857,295.1064,336.8857,307.1064,173.019,307.1064,161.019,295.1064,173.019,283.1064" style="stroke:#181818;stroke-width:0.5;"/><text fill="#000000" font-family="sans-serif" font-size="11" lengthAdjust="spacing" textLength="163.8667" x="173.019" y="299.6074">Check IP address Lightingmoduls</text><text fill="#000000" font-family="sans-serif" font-size="11" lengthAdjust="spacing" textLength="151.019" x="10" y="292.6895">no more IP addresses (in data)</text><rect fill="#F1F1F1" height="35.0938" rx="12.5" ry="12.5" style="stroke:#181818;stroke-width:0.5;" width="241.4258" x="134.2395" y="448.2002"/><text fill="#000000" font-family="sans-serif" font-size="12" lengthAdjust="spacing" textLength="221.4258" x="144.2395" y="470.6572">check status of camera/measurementUnit</text><polygon fill="#F1F1F1" points="213.3882,404.2002,296.5166,404.2002,308.5166,416.2002,296.5166,428.2002,213.3882,428.2002,201.3882,416.2002,213.3882,404.2002" style="stroke:#181818;stroke-width:0.5;"/><text fill="#000000" font-family="sans-serif" font-size="11" lengthAdjust="spacing" textLength="83.1284" x="213.3882" y="420.7012">Check COM Port</text><text fill="#000000" font-family="sans-serif" font-size="11" lengthAdjust="spacing" textLength="135.1099" x="66.2783" y="413.7832">no more com ports (in data)</text><polygon fill="#F1F1F1" points="190.4429,525.2939,319.4619,525.2939,331.4619,537.2939,319.4619,549.2939,190.4429,549.2939,178.4429,537.2939,190.4429,525.2939" style="stroke:#181818;stroke-width:0.5;"/><text fill="#000000" font-family="sans-serif" font-size="11" lengthAdjust="spacing" textLength="129.019" x="190.4429" y="541.7949">posetive results available?</text><text fill="#000000" font-family="sans-serif" font-size="11" lengthAdjust="spacing" textLength="18.9546" x="159.4883" y="534.877">Yes</text><text fill="#000000" font-family="sans-serif" font-size="11" lengthAdjust="spacing" textLength="23.2246" x="331.4619" y="534.877">error</text><rect fill="#F1F1F1" height="35.0938" rx="12.5" ry="12.5" style="stroke:#181818;stroke-width:0.5;" width="170.7383" x="76.3821" y="559.2939"/><text fill="#000000" font-family="sans-serif" font-size="12" lengthAdjust="spacing" textLength="150.7383" x="86.3821" y="581.751">Store results in config/status</text><ellipse cx="161.7512" cy="624.3877" fill="none" rx="10" ry="10" style="stroke:#222222;stroke-width:1.5;"/><line style="stroke:#222222;stroke-width:2.5;" x1="155.564" x2="167.9384" y1="618.2005" y2="630.5749"/><line style="stroke:#222222;stroke-width:2.5;" x1="167.9384" x2="155.564" y1="618.2005" y2="630.5749"/><rect fill="#F1F1F1" height="35.0938" rx="12.5" ry="12.5" style="stroke:#181818;stroke-width:0.5;" width="162.0664" x="267.1204" y="559.2939"/><text fill="#000000" font-family="sans-serif" font-size="12" lengthAdjust="spacing" textLength="142.0664" x="277.1204" y="581.751">Show error in config/status</text><ellipse cx="348.1536" cy="624.3877" fill="none" rx="10" ry="10" style="stroke:#222222;stroke-width:1.5;"/><line style="stroke:#222222;stroke-width:2.5;" x1="341.9664" x2="354.3407" y1="618.2005" y2="630.5749"/><line style="stroke:#222222;stroke-width:2.5;" x1="354.3407" x2="341.9664" y1="618.2005" y2="630.5749"/><line style="stroke:#181818;stroke-width:1;" x1="254.9524" x2="254.9524" y1="30" y2="50"/><polygon fill="#181818" points="250.9524,40,254.9524,50,258.9524,40,254.9524,44" style="stroke:#181818;stroke-width:1;"/><line style="stroke:#181818;stroke-width:1;" x1="254.9524" x2="254.9524" y1="129.0938" y2="162.0127"/><polygon fill="#181818" points="250.9524,152.0127,254.9524,162.0127,258.9524,152.0127,254.9524,156.0127" style="stroke:#181818;stroke-width:1;"/><line style="stroke:#181818;stroke-width:1;" x1="305.1758" x2="339.4004" y1="117.0938" y2="117.0938"/><polygon fill="#181818" points="329.4004,113.0938,339.4004,117.0938,329.4004,121.0938,333.4004,117.0938" style="stroke:#181818;stroke-width:1;"/><line style="stroke:#181818;stroke-width:1;" x1="254.9524" x2="254.9524" y1="85.0938" y2="105.0938"/><polygon fill="#181818" points="250.9524,95.0938,254.9524,105.0938,258.9524,95.0938,254.9524,99.0938" style="stroke:#181818;stroke-width:1;"/><line style="stroke:#181818;stroke-width:1;" x1="254.9524" x2="254.9524" y1="186.0127" y2="206.0127"/><polygon fill="#181818" points="250.9524,196.0127,254.9524,206.0127,258.9524,196.0127,254.9524,200.0127" style="stroke:#181818;stroke-width:1;"/><line style="stroke:#181818;stroke-width:1;" x1="254.9524" x2="254.9524" y1="241.1064" y2="251.1064"/><line style="stroke:#181818;stroke-width:1;" x1="254.9524" x2="355.9873" y1="251.1064" y2="251.1064"/><polygon fill="#181818" points="351.9873,221.5596,355.9873,211.5596,359.9873,221.5596,355.9873,217.5596" style="stroke:#181818;stroke-width:1;"/><line style="stroke:#181818;stroke-width:1;" x1="355.9873" x2="355.9873" y1="174.0127" y2="251.1064"/><line style="stroke:#181818;stroke-width:1;" x1="355.9873" x2="343.9873" y1="174.0127" y2="174.0127"/><polygon fill="#181818" points="353.9873,170.0127,343.9873,174.0127,353.9873,178.0127,349.9873,174.0127" style="stroke:#181818;stroke-width:1;"/><line style="stroke:#181818;stroke-width:1;" x1="165.9175" x2="153.9175" y1="174.0127" y2="174.0127"/><polygon fill="#181818" points="149.9175,207.5596,153.9175,217.5596,157.9175,207.5596,153.9175,211.5596" style="stroke:#181818;stroke-width:1;"/><line style="stroke:#181818;stroke-width:1;" x1="153.9175" x2="153.9175" y1="174.0127" y2="263.1064"/><line style="stroke:#181818;stroke-width:1;" x1="153.9175" x2="254.9524" y1="263.1064" y2="263.1064"/><line style="stroke:#181818;stroke-width:1;" x1="254.9524" x2="254.9524" y1="263.1064" y2="283.1064"/><polygon fill="#181818" points="250.9524,273.1064,254.9524,283.1064,258.9524,273.1064,254.9524,277.1064" style="stroke:#181818;stroke-width:1;"/><line style="stroke:#181818;stroke-width:1;" x1="254.9524" x2="254.9524" y1="307.1064" y2="327.1064"/><polygon fill="#181818" points="250.9524,317.1064,254.9524,327.1064,258.9524,317.1064,254.9524,321.1064" style="stroke:#181818;stroke-width:1;"/><line style="stroke:#181818;stroke-width:1;" x1="254.9524" x2="254.9524" y1="362.2002" y2="372.2002"/><line style="stroke:#181818;stroke-width:1;" x1="254.9524" x2="360.8857" y1="372.2002" y2="372.2002"/><polygon fill="#181818" points="356.8857,342.6533,360.8857,332.6533,364.8857,342.6533,360.8857,338.6533" style="stroke:#181818;stroke-width:1;"/><line style="stroke:#181818;stroke-width:1;" x1="360.8857" x2="360.8857" y1="295.1064" y2="372.2002"/><line style="stroke:#181818;stroke-width:1;" x1="360.8857" x2="348.8857" y1="295.1064" y2="295.1064"/><polygon fill="#181818" points="358.8857,291.1064,348.8857,295.1064,358.8857,299.1064,354.8857,295.1064" style="stroke:#181818;stroke-width:1;"/><line style="stroke:#181818;stroke-width:1;" x1="161.019" x2="149.019" y1="295.1064" y2="295.1064"/><polygon fill="#181818" points="145.019,328.6533,149.019,338.6533,153.019,328.6533,149.019,332.6533" style="stroke:#181818;stroke-width:1;"/><line style="stroke:#181818;stroke-width:1;" x1="149.019" x2="149.019" y1="295.1064" y2="384.2002"/><line style="stroke:#181818;stroke-width:1;" x1="149.019" x2="254.9524" y1="384.2002" y2="384.2002"/><line style="stroke:#181818;stroke-width:1;" x1="254.9524" x2="254.9524" y1="384.2002" y2="404.2002"/><polygon fill="#181818" points="250.9524,394.2002,254.9524,404.2002,258.9524,394.2002,254.9524,398.2002" style="stroke:#181818;stroke-width:1;"/><line style="stroke:#181818;stroke-width:1;" x1="254.9524" x2="254.9524" y1="428.2002" y2="448.2002"/><polygon fill="#181818" points="250.9524,438.2002,254.9524,448.2002,258.9524,438.2002,254.9524,442.2002" style="stroke:#181818;stroke-width:1;"/><line style="stroke:#181818;stroke-width:1;" x1="254.9524" x2="254.9524" y1="483.2939" y2="493.2939"/><line style="stroke:#181818;stroke-width:1;" x1="254.9524" x2="387.6653" y1="493.2939" y2="493.2939"/><polygon fill="#181818" points="383.6653,463.7471,387.6653,453.7471,391.6653,463.7471,387.6653,459.7471" style="stroke:#181818;stroke-width:1;"/><line style="stroke:#181818;stroke-width:1;" x1="387.6653" x2="387.6653" y1="416.2002" y2="493.2939"/><line style="stroke:#181818;stroke-width:1;" x1="387.6653" x2="308.5166" y1="416.2002" y2="416.2002"/><polygon fill="#181818" points="318.5166,412.2002,308.5166,416.2002,318.5166,420.2002,314.5166,416.2002" style="stroke:#181818;stroke-width:1;"/><line style="stroke:#181818;stroke-width:1;" x1="201.3882" x2="122.2395" y1="416.2002" y2="416.2002"/><polygon fill="#181818" points="118.2395,449.7471,122.2395,459.7471,126.2395,449.7471,122.2395,453.7471" style="stroke:#181818;stroke-width:1;"/><line style="stroke:#181818;stroke-width:1;" x1="122.2395" x2="122.2395" y1="416.2002" y2="505.2939"/><line style="stroke:#181818;stroke-width:1;" x1="122.2395" x2="254.9524" y1="505.2939" y2="505.2939"/><line style="stroke:#181818;stroke-width:1;" x1="254.9524" x2="254.9524" y1="505.2939" y2="525.2939"/><polygon fill="#181818" points="250.9524,515.2939,254.9524,525.2939,258.9524,515.2939,254.9524,519.2939" style="stroke:#181818;stroke-width:1;"/><line style="stroke:#181818;stroke-width:1;" x1="161.7512" x2="161.7512" y1="594.3877" y2="614.3877"/><polygon fill="#181818" points="157.7512,604.3877,161.7512,614.3877,165.7512,604.3877,161.7512,608.3877" style="stroke:#181818;stroke-width:1;"/><line style="stroke:#181818;stroke-width:1;" x1="348.1536" x2="348.1536" y1="594.3877" y2="614.3877"/><polygon fill="#181818" points="344.1536,604.3877,348.1536,614.3877,352.1536,604.3877,348.1536,608.3877" style="stroke:#181818;stroke-width:1;"/><line style="stroke:#181818;stroke-width:1;" x1="178.4429" x2="161.7512" y1="537.2939" y2="537.2939"/><line style="stroke:#181818;stroke-width:1;" x1="161.7512" x2="161.7512" y1="537.2939" y2="559.2939"/><polygon fill="#181818" points="157.7512,549.2939,161.7512,559.2939,165.7512,549.2939,161.7512,553.2939" style="stroke:#181818;stroke-width:1;"/><line style="stroke:#181818;stroke-width:1;" x1="331.4619" x2="348.1536" y1="537.2939" y2="537.2939"/><line style="stroke:#181818;stroke-width:1;" x1="348.1536" x2="348.1536" y1="537.2939" y2="559.2939"/><polygon fill="#181818" points="344.1536,549.2939,348.1536,559.2939,352.1536,549.2939,348.1536,553.2939" style="stroke:#181818;stroke-width:1;"/><!--SRC=[jP4_RuCm4CLtVueROMA7eKEcLcr18XawklO1fuADV6VozMiWIAcKZFLuVtxldH-B3gBA5fs5fcxFHNCvmrjRVrPAKGTPgnS4SdCKi5fq3ZAWWmn3y25Na1wBdnMEZ91nD0QPSvLerAdhG6EgdWOqF_3QWBOsf3Oqdad8kuiZuHrIccs8HKjay1rONCXWjP9k6ETXyW7lGCYGaTjzvUgft3lrWv3h9s_Z-5zwf_eZtHNa2Txe2OCk9jGS0qxeP3q-_V43GUCdc1FgZzgQnUmPXL8UoKmSKrylcaRzFUBBaSiN7WUsihAEoGGotdNK5xkdQXjAskeMtLsWPJluAso51tlhpYy0]--></g></svg>