<svg xmlns="http://www.w3.org/2000/svg" xmlns:xlink="http://www.w3.org/1999/xlink" contentStyleType="text/css" height="728px" preserveAspectRatio="none" style="width:452px;height:728px;background:#FFFFFF;" version="1.1" viewBox="0 0 452 728" width="452px" zoomAndPan="magnify"><defs/><g><rect fill="none" height="117.7031" style="stroke:#000000;stroke-width:1.5;" width="166.7031" x="171.6008" y="11"/><path d="M287.4143,11 L287.4143,21.6094 L277.4143,31.6094 L171.6008,31.6094 " fill="none" style="stroke:#000000;stroke-width:1.5;"/><text fill="#000000" font-family="sans-serif" font-size="14" lengthAdjust="spacing" textLength="105.8135" x="174.6008" y="26.5332">Externes System</text><ellipse cx="254.9524" cy="51.6094" fill="#222222" rx="10" ry="10" style="stroke:#222222;stroke-width:1;"/><rect fill="#F1F1F1" height="35.0938" rx="12.5" ry="12.5" style="stroke:#181818;stroke-width:0.5;" width="146.7031" x="181.6008" y="81.6094"/><text fill="#000000" font-family="sans-serif" font-size="12" lengthAdjust="spacing" textLength="126.7031" x="191.6008" y="104.0664">Send POST/PUT JSON</text><rect fill="none" height="578.9033" style="stroke:#000000;stroke-width:1.5;" width="384.8047" x="56.3821" y="138.7031"/><path d="M171.4163,138.7031 L171.4163,149.3125 L161.4163,159.3125 L56.3821,159.3125 " fill="none" style="stroke:#000000;stroke-width:1.5;"/><text fill="#000000" font-family="sans-serif" font-size="14" lengthAdjust="spacing" textLength="105.0342" x="59.3821" y="154.2363">I-San Webserver</text><polygon fill="#F1F1F1" points="216.729,176.3125,293.1758,176.3125,305.1758,188.3125,293.1758,200.3125,216.729,200.3125,204.729,188.3125,216.729,176.3125" style="stroke:#181818;stroke-width:0.5;"/><text fill="#000000" font-family="sans-serif" font-size="11" lengthAdjust="spacing" textLength="39.7354" x="258.9524" y="211.7314">success</text><text fill="#000000" font-family="sans-serif" font-size="11" lengthAdjust="spacing" textLength="76.4468" x="216.729" y="192.8135">Save input data</text><text fill="#000000" font-family="sans-serif" font-size="11" lengthAdjust="spacing" textLength="23.2246" x="305.1758" y="185.8955">error</text><ellipse cx="350.4004" cy="188.3125" fill="none" rx="11" ry="11" style="stroke:#222222;stroke-width:1;"/><ellipse cx="350.4004" cy="188.3125" fill="#222222" rx="6" ry="6" style="stroke:#222222;stroke-width:1;"/><rect fill="#F1F1F1" height="35.0938" rx="12.5" ry="12.5" style="stroke:#181818;stroke-width:0.5;" width="138.0605" x="185.9221" y="277.2314"/><text fill="#000000" font-family="sans-serif" font-size="12" lengthAdjust="spacing" textLength="118.0605" x="195.9221" y="299.6885">check status of device</text><polygon fill="#F1F1F1" points="177.9175,233.2314,331.9873,233.2314,343.9873,245.2314,331.9873,257.2314,177.9175,257.2314,165.9175,245.2314,177.9175,233.2314" style="stroke:#181818;stroke-width:0.5;"/><text fill="#000000" font-family="sans-serif" font-size="11" lengthAdjust="spacing" textLength="154.0698" x="177.9175" y="249.7324">Check IP address PositionUnits</text><text fill="#000000" font-family="sans-serif" font-size="11" lengthAdjust="spacing" textLength="151.019" x="14.8984" y="242.8145">no more IP addresses (in data)</text><rect fill="#F1F1F1" height="35.0938" rx="12.5" ry="12.5" style="stroke:#181818;stroke-width:0.5;" width="138.0605" x="185.9221" y="398.3252"/><text fill="#000000" font-family="sans-serif" font-size="12" lengthAdjust="spacing" textLength="118.0605" x="195.9221" y="420.7822">check status of device</text><polygon fill="#F1F1F1" points="173.019,354.3252,336.8857,354.3252,348.8857,366.3252,336.8857,378.3252,173.019,378.3252,161.019,366.3252,173.019,354.3252" style="stroke:#181818;stroke-width:0.5;"/><text fill="#000000" font-family="sans-serif" font-size="11" lengthAdjust="spacing" textLength="163.8667" x="173.019" y="370.8262">Check IP address Lightingmoduls</text><text fill="#000000" font-family="sans-serif" font-size="11" lengthAdjust="spacing" textLength="151.019" x="10" y="363.9082">no more IP addresses (in data)</text><rect fill="#F1F1F1" height="35.0938" rx="12.5" ry="12.5" style="stroke:#181818;stroke-width:0.5;" width="241.4258" x="134.2395" y="519.4189"/><text fill="#000000" font-family="sans-serif" font-size="12" lengthAdjust="spacing" textLength="221.4258" x="144.2395" y="541.876">check status of camera/measurementUnit</text><polygon fill="#F1F1F1" points="213.3882,475.4189,296.5166,475.4189,308.5166,487.4189,296.5166,499.4189,213.3882,499.4189,201.3882,487.4189,213.3882,475.4189" style="stroke:#181818;stroke-width:0.5;"/><text fill="#000000" font-family="sans-serif" font-size="11" lengthAdjust="spacing" textLength="83.1284" x="213.3882" y="491.9199">Check COM Port</text><text fill="#000000" font-family="sans-serif" font-size="11" lengthAdjust="spacing" textLength="135.1099" x="66.2783" y="485.002">no more com ports (in data)</text><polygon fill="#F1F1F1" points="190.4429,596.5127,319.4619,596.5127,331.4619,608.5127,319.4619,620.5127,190.4429,620.5127,178.4429,608.5127,190.4429,596.5127" style="stroke:#181818;stroke-width:0.5;"/><text fill="#000000" font-family="sans-serif" font-size="11" lengthAdjust="spacing" textLength="129.019" x="190.4429" y="613.0137">posetive results available?</text><text fill="#000000" font-family="sans-serif" font-size="11" lengthAdjust="spacing" textLength="18.9546" x="159.4883" y="606.0957">Yes</text><text fill="#000000" font-family="sans-serif" font-size="11" lengthAdjust="spacing" textLength="23.2246" x="331.4619" y="606.0957">error</text><rect fill="#F1F1F1" height="35.0938" rx="12.5" ry="12.5" style="stroke:#181818;stroke-width:0.5;" width="170.7383" x="76.3821" y="630.5127"/><text fill="#000000" font-family="sans-serif" font-size="12" lengthAdjust="spacing" textLength="150.7383" x="86.3821" y="652.9697">Store results in config/status</text><ellipse cx="161.7512" cy="695.6064" fill="none" rx="10" ry="10" style="stroke:#222222;stroke-width:1.5;"/><line style="stroke:#222222;stroke-width:2.5;" x1="155.564" x2="167.9384" y1="689.4193" y2="701.7936"/><line style="stroke:#222222;stroke-width:2.5;" x1="167.9384" x2="155.564" y1="689.4193" y2="701.7936"/><rect fill="#F1F1F1" height="35.0938" rx="12.5" ry="12.5" style="stroke:#181818;stroke-width:0.5;" width="162.0664" x="267.1204" y="630.5127"/><text fill="#000000" font-family="sans-serif" font-size="12" lengthAdjust="spacing" textLength="142.0664" x="277.1204" y="652.9697">Show error in config/status</text><ellipse cx="348.1536" cy="695.6064" fill="none" rx="10" ry="10" style="stroke:#222222;stroke-width:1.5;"/><line style="stroke:#222222;stroke-width:2.5;" x1="341.9664" x2="354.3407" y1="689.4193" y2="701.7936"/><line style="stroke:#222222;stroke-width:2.5;" x1="354.3407" x2="341.9664" y1="689.4193" y2="701.7936"/><line style="stroke:#181818;stroke-width:1;" x1="254.9524" x2="254.9524" y1="61.6094" y2="81.6094"/><polygon fill="#181818" points="250.9524,71.6094,254.9524,81.6094,258.9524,71.6094,254.9524,75.6094" style="stroke:#181818;stroke-width:1;"/><line style="stroke:#181818;stroke-width:1;" x1="254.9524" x2="254.9524" y1="200.3125" y2="233.2314"/><polygon fill="#181818" points="250.9524,223.2314,254.9524,233.2314,258.9524,223.2314,254.9524,227.2314" style="stroke:#181818;stroke-width:1;"/><line style="stroke:#181818;stroke-width:1;" x1="305.1758" x2="339.4004" y1="188.3125" y2="188.3125"/><polygon fill="#181818" points="329.4004,184.3125,339.4004,188.3125,329.4004,192.3125,333.4004,188.3125" style="stroke:#181818;stroke-width:1;"/><line style="stroke:#181818;stroke-width:1;" x1="254.9524" x2="254.9524" y1="257.2314" y2="277.2314"/><polygon fill="#181818" points="250.9524,267.2314,254.9524,277.2314,258.9524,267.2314,254.9524,271.2314" style="stroke:#181818;stroke-width:1;"/><line style="stroke:#181818;stroke-width:1;" x1="254.9524" x2="254.9524" y1="312.3252" y2="322.3252"/><line style="stroke:#181818;stroke-width:1;" x1="254.9524" x2="355.9873" y1="322.3252" y2="322.3252"/><polygon fill="#181818" points="351.9873,292.7783,355.9873,282.7783,359.9873,292.7783,355.9873,288.7783" style="stroke:#181818;stroke-width:1;"/><line style="stroke:#181818;stroke-width:1;" x1="355.9873" x2="355.9873" y1="245.2314" y2="322.3252"/><line style="stroke:#181818;stroke-width:1;" x1="355.9873" x2="343.9873" y1="245.2314" y2="245.2314"/><polygon fill="#181818" points="353.9873,241.2314,343.9873,245.2314,353.9873,249.2314,349.9873,245.2314" style="stroke:#181818;stroke-width:1;"/><line style="stroke:#181818;stroke-width:1;" x1="165.9175" x2="153.9175" y1="245.2314" y2="245.2314"/><polygon fill="#181818" points="149.9175,278.7783,153.9175,288.7783,157.9175,278.7783,153.9175,282.7783" style="stroke:#181818;stroke-width:1;"/><line style="stroke:#181818;stroke-width:1;" x1="153.9175" x2="153.9175" y1="245.2314" y2="334.3252"/><line style="stroke:#181818;stroke-width:1;" x1="153.9175" x2="254.9524" y1="334.3252" y2="334.3252"/><line style="stroke:#181818;stroke-width:1;" x1="254.9524" x2="254.9524" y1="334.3252" y2="354.3252"/><polygon fill="#181818" points="250.9524,344.3252,254.9524,354.3252,258.9524,344.3252,254.9524,348.3252" style="stroke:#181818;stroke-width:1;"/><line style="stroke:#181818;stroke-width:1;" x1="254.9524" x2="254.9524" y1="378.3252" y2="398.3252"/><polygon fill="#181818" points="250.9524,388.3252,254.9524,398.3252,258.9524,388.3252,254.9524,392.3252" style="stroke:#181818;stroke-width:1;"/><line style="stroke:#181818;stroke-width:1;" x1="254.9524" x2="254.9524" y1="433.4189" y2="443.4189"/><line style="stroke:#181818;stroke-width:1;" x1="254.9524" x2="360.8857" y1="443.4189" y2="443.4189"/><polygon fill="#181818" points="356.8857,413.8721,360.8857,403.8721,364.8857,413.8721,360.8857,409.8721" style="stroke:#181818;stroke-width:1;"/><line style="stroke:#181818;stroke-width:1;" x1="360.8857" x2="360.8857" y1="366.3252" y2="443.4189"/><line style="stroke:#181818;stroke-width:1;" x1="360.8857" x2="348.8857" y1="366.3252" y2="366.3252"/><polygon fill="#181818" points="358.8857,362.3252,348.8857,366.3252,358.8857,370.3252,354.8857,366.3252" style="stroke:#181818;stroke-width:1;"/><line style="stroke:#181818;stroke-width:1;" x1="161.019" x2="149.019" y1="366.3252" y2="366.3252"/><polygon fill="#181818" points="145.019,399.8721,149.019,409.8721,153.019,399.8721,149.019,403.8721" style="stroke:#181818;stroke-width:1;"/><line style="stroke:#181818;stroke-width:1;" x1="149.019" x2="149.019" y1="366.3252" y2="455.4189"/><line style="stroke:#181818;stroke-width:1;" x1="149.019" x2="254.9524" y1="455.4189" y2="455.4189"/><line style="stroke:#181818;stroke-width:1;" x1="254.9524" x2="254.9524" y1="455.4189" y2="475.4189"/><polygon fill="#181818" points="250.9524,465.4189,254.9524,475.4189,258.9524,465.4189,254.9524,469.4189" style="stroke:#181818;stroke-width:1;"/><line style="stroke:#181818;stroke-width:1;" x1="254.9524" x2="254.9524" y1="499.4189" y2="519.4189"/><polygon fill="#181818" points="250.9524,509.4189,254.9524,519.4189,258.9524,509.4189,254.9524,513.4189" style="stroke:#181818;stroke-width:1;"/><line style="stroke:#181818;stroke-width:1;" x1="254.9524" x2="254.9524" y1="554.5127" y2="564.5127"/><line style="stroke:#181818;stroke-width:1;" x1="254.9524" x2="387.6653" y1="564.5127" y2="564.5127"/><polygon fill="#181818" points="383.6653,534.9658,387.6653,524.9658,391.6653,534.9658,387.6653,530.9658" style="stroke:#181818;stroke-width:1;"/><line style="stroke:#181818;stroke-width:1;" x1="387.6653" x2="387.6653" y1="487.4189" y2="564.5127"/><line style="stroke:#181818;stroke-width:1;" x1="387.6653" x2="308.5166" y1="487.4189" y2="487.4189"/><polygon fill="#181818" points="318.5166,483.4189,308.5166,487.4189,318.5166,491.4189,314.5166,487.4189" style="stroke:#181818;stroke-width:1;"/><line style="stroke:#181818;stroke-width:1;" x1="201.3882" x2="122.2395" y1="487.4189" y2="487.4189"/><polygon fill="#181818" points="118.2395,520.9658,122.2395,530.9658,126.2395,520.9658,122.2395,524.9658" style="stroke:#181818;stroke-width:1;"/><line style="stroke:#181818;stroke-width:1;" x1="122.2395" x2="122.2395" y1="487.4189" y2="576.5127"/><line style="stroke:#181818;stroke-width:1;" x1="122.2395" x2="254.9524" y1="576.5127" y2="576.5127"/><line style="stroke:#181818;stroke-width:1;" x1="254.9524" x2="254.9524" y1="576.5127" y2="596.5127"/><polygon fill="#181818" points="250.9524,586.5127,254.9524,596.5127,258.9524,586.5127,254.9524,590.5127" style="stroke:#181818;stroke-width:1;"/><line style="stroke:#181818;stroke-width:1;" x1="161.7512" x2="161.7512" y1="665.6064" y2="685.6064"/><polygon fill="#181818" points="157.7512,675.6064,161.7512,685.6064,165.7512,675.6064,161.7512,679.6064" style="stroke:#181818;stroke-width:1;"/><line style="stroke:#181818;stroke-width:1;" x1="348.1536" x2="348.1536" y1="665.6064" y2="685.6064"/><polygon fill="#181818" points="344.1536,675.6064,348.1536,685.6064,352.1536,675.6064,348.1536,679.6064" style="stroke:#181818;stroke-width:1;"/><line style="stroke:#181818;stroke-width:1;" x1="178.4429" x2="161.7512" y1="608.5127" y2="608.5127"/><line style="stroke:#181818;stroke-width:1;" x1="161.7512" x2="161.7512" y1="608.5127" y2="630.5127"/><polygon fill="#181818" points="157.7512,620.5127,161.7512,630.5127,165.7512,620.5127,161.7512,624.5127" style="stroke:#181818;stroke-width:1;"/><line style="stroke:#181818;stroke-width:1;" x1="331.4619" x2="348.1536" y1="608.5127" y2="608.5127"/><line style="stroke:#181818;stroke-width:1;" x1="348.1536" x2="348.1536" y1="608.5127" y2="630.5127"/><polygon fill="#181818" points="344.1536,620.5127,348.1536,630.5127,352.1536,620.5127,348.1536,624.5127" style="stroke:#181818;stroke-width:1;"/><line style="stroke:#181818;stroke-width:1;" x1="254.9524" x2="254.9524" y1="116.7031" y2="176.3125"/><polygon fill="#181818" points="250.9524,166.3125,254.9524,176.3125,258.9524,166.3125,254.9524,170.3125" style="stroke:#181818;stroke-width:1;"/><!--SRC=[jP4_JyCm4CLtVufJfsH0tPk1eM8e0Xh9hH2ZwroQ4x4TsPSKXFZkND9M5457F5dtv_VUwNKcCZ453xExDyReCO5-Junk1XyAv2MMaUctqEWhADTwCo-t6xZNwwT2VIgbkc_8waOR3y-uInW7Z2E4QiYq6H38Tpr3PTZam0rwo3364FEJJEWKjWaXIxsrc5AkH8vgTMYebUgoGViAgn9CLKLfGndI9BhrnEa8MTXfI2npdo3KKE505ekHTCBu02v4l039nHdvewzSNPLxe7t3vFSkL7txNthBzQFS5VaAtXg7qSmTcjH7TEXvFBwG27uBsk2W4zGFjJ6BBYHaaZp4JDzAtmo6MhDhyVQSomkU3zGyiiwJ0hB1rxIV7pqLqv1egrDq5u4kT1CEC1N-s9jslW00]--></g></svg>