<svg xmlns="http://www.w3.org/2000/svg" xmlns:xlink="http://www.w3.org/1999/xlink" contentStyleType="text/css" height="728px" preserveAspectRatio="none" style="width:492px;height:728px;background:#FFFFFF;" version="1.1" viewBox="0 0 492 728" width="492px" zoomAndPan="magnify"><defs/><g><rect fill="none" height="117.7031" style="stroke:#000000;stroke-width:1.5;" width="166.7031" x="169.2383" y="11"/><path d="M267.9277,11 L267.9277,21.6094 L257.9277,31.6094 L169.2383,31.6094 " fill="none" style="stroke:#000000;stroke-width:1.5;"/><text fill="#000000" font-family="sans-serif" font-size="14" lengthAdjust="spacing" textLength="88.6895" x="172.2383" y="26.5332">Extern system</text><ellipse cx="252.5898" cy="51.6094" fill="#222222" rx="10" ry="10" style="stroke:#222222;stroke-width:1;"/><rect fill="#F1F1F1" height="35.0938" rx="12.5" ry="12.5" style="stroke:#181818;stroke-width:0.5;" width="146.7031" x="179.2383" y="81.6094"/><text fill="#000000" font-family="sans-serif" font-size="12" lengthAdjust="spacing" textLength="126.7031" x="189.2383" y="104.0664">Send POST/PUT JSON</text><rect fill="none" height="578.9033" style="stroke:#000000;stroke-width:1.5;" width="470.1758" x="11" y="138.7031"/><path d="M126.0342,138.7031 L126.0342,149.3125 L116.0342,159.3125 L11,159.3125 " fill="none" style="stroke:#000000;stroke-width:1.5;"/><text fill="#000000" font-family="sans-serif" font-size="14" lengthAdjust="spacing" textLength="105.0342" x="14" y="154.2363">I-San Webserver</text><polygon fill="#F1F1F1" points="214.3665,176.3125,290.8132,176.3125,302.8132,188.3125,290.8132,200.3125,214.3665,200.3125,202.3665,188.3125,214.3665,176.3125" style="stroke:#181818;stroke-width:0.5;"/><text fill="#000000" font-family="sans-serif" font-size="11" lengthAdjust="spacing" textLength="39.7354" x="256.5898" y="211.7314">success</text><text fill="#000000" font-family="sans-serif" font-size="11" lengthAdjust="spacing" textLength="76.4468" x="214.3665" y="192.8135">Save input data</text><text fill="#000000" font-family="sans-serif" font-size="11" lengthAdjust="spacing" textLength="23.2246" x="302.8132" y="185.8955">error</text><ellipse cx="348.0378" cy="188.3125" fill="none" rx="11" ry="11" style="stroke:#222222;stroke-width:1;"/><ellipse cx="348.0378" cy="188.3125" fill="#222222" rx="6" ry="6" style="stroke:#222222;stroke-width:1;"/><rect fill="#F1F1F1" height="35.0938" rx="12.5" ry="12.5" style="stroke:#181818;stroke-width:0.5;" width="138.0605" x="183.5596" y="277.2314"/><text fill="#000000" font-family="sans-serif" font-size="12" lengthAdjust="spacing" textLength="118.0605" x="193.5596" y="299.6885">check status of device</text><polygon fill="#F1F1F1" points="175.5549,233.2314,329.6248,233.2314,341.6248,245.2314,329.6248,257.2314,175.5549,257.2314,163.5549,245.2314,175.5549,233.2314" style="stroke:#181818;stroke-width:0.5;"/><text fill="#000000" font-family="sans-serif" font-size="11" lengthAdjust="spacing" textLength="154.0698" x="175.5549" y="249.7324">Check IP address PositionUnits</text><text fill="#000000" font-family="sans-serif" font-size="11" lengthAdjust="spacing" textLength="151.019" x="12.5359" y="242.8145">no more IP addresses (in data)</text><rect fill="#F1F1F1" height="35.0938" rx="12.5" ry="12.5" style="stroke:#181818;stroke-width:0.5;" width="138.0605" x="183.5596" y="398.3252"/><text fill="#000000" font-family="sans-serif" font-size="12" lengthAdjust="spacing" textLength="118.0605" x="193.5596" y="420.7822">check status of device</text><polygon fill="#F1F1F1" points="175.8557,354.3252,329.324,354.3252,341.324,366.3252,329.324,378.3252,175.8557,378.3252,163.8557,366.3252,175.8557,354.3252" style="stroke:#181818;stroke-width:0.5;"/><text fill="#000000" font-family="sans-serif" font-size="11" lengthAdjust="spacing" textLength="153.4683" x="175.8557" y="370.8262">Check IP address LightingUnits</text><text fill="#000000" font-family="sans-serif" font-size="11" lengthAdjust="spacing" textLength="151.019" x="12.8367" y="363.9082">no more IP addresses (in data)</text><rect fill="#F1F1F1" height="35.0938" rx="12.5" ry="12.5" style="stroke:#181818;stroke-width:0.5;" width="241.4258" x="131.877" y="519.4189"/><text fill="#000000" font-family="sans-serif" font-size="12" lengthAdjust="spacing" textLength="221.4258" x="141.877" y="541.876">check status of camera/measurementUnit</text><polygon fill="#F1F1F1" points="211.0256,475.4189,294.1541,475.4189,306.1541,487.4189,294.1541,499.4189,211.0256,499.4189,199.0256,487.4189,211.0256,475.4189" style="stroke:#181818;stroke-width:0.5;"/><text fill="#000000" font-family="sans-serif" font-size="11" lengthAdjust="spacing" textLength="83.1284" x="211.0256" y="491.9199">Check COM Port</text><text fill="#000000" font-family="sans-serif" font-size="11" lengthAdjust="spacing" textLength="135.1099" x="63.9158" y="485.002">no more com ports (in data)</text><polygon fill="#F1F1F1" points="188.0803,596.5127,317.0994,596.5127,329.0994,608.5127,317.0994,620.5127,188.0803,620.5127,176.0803,608.5127,188.0803,596.5127" style="stroke:#181818;stroke-width:0.5;"/><text fill="#000000" font-family="sans-serif" font-size="11" lengthAdjust="spacing" textLength="129.019" x="188.0803" y="613.0137">posetive results available?</text><text fill="#000000" font-family="sans-serif" font-size="11" lengthAdjust="spacing" textLength="18.9546" x="157.1257" y="606.0957">Yes</text><text fill="#000000" font-family="sans-serif" font-size="11" lengthAdjust="spacing" textLength="23.2246" x="329.0994" y="606.0957">error</text><rect fill="#F1F1F1" height="35.0938" rx="12.5" ry="12.5" style="stroke:#181818;stroke-width:0.5;" width="214.0918" x="31" y="630.5127"/><text fill="#000000" font-family="sans-serif" font-size="12" lengthAdjust="spacing" textLength="194.0918" x="41" y="652.9697">Store results in Device_config/status</text><ellipse cx="138.0459" cy="695.6064" fill="none" rx="10" ry="10" style="stroke:#222222;stroke-width:1.5;"/><line style="stroke:#222222;stroke-width:2.5;" x1="131.8587" x2="144.2331" y1="689.4193" y2="701.7936"/><line style="stroke:#222222;stroke-width:2.5;" x1="144.2331" x2="131.8587" y1="689.4193" y2="701.7936"/><rect fill="#F1F1F1" height="35.0938" rx="12.5" ry="12.5" style="stroke:#181818;stroke-width:0.5;" width="204.084" x="265.0918" y="630.5127"/><text fill="#000000" font-family="sans-serif" font-size="12" lengthAdjust="spacing" textLength="184.084" x="275.0918" y="652.9697">Store error in Device_config/status</text><ellipse cx="367.1338" cy="695.6064" fill="none" rx="10" ry="10" style="stroke:#222222;stroke-width:1.5;"/><line style="stroke:#222222;stroke-width:2.5;" x1="360.9466" x2="373.321" y1="689.4193" y2="701.7936"/><line style="stroke:#222222;stroke-width:2.5;" x1="373.321" x2="360.9466" y1="689.4193" y2="701.7936"/><line style="stroke:#181818;stroke-width:1;" x1="252.5898" x2="252.5898" y1="61.6094" y2="81.6094"/><polygon fill="#181818" points="248.5898,71.6094,252.5898,81.6094,256.5898,71.6094,252.5898,75.6094" style="stroke:#181818;stroke-width:1;"/><line style="stroke:#181818;stroke-width:1;" x1="252.5898" x2="252.5898" y1="200.3125" y2="233.2314"/><polygon fill="#181818" points="248.5898,223.2314,252.5898,233.2314,256.5898,223.2314,252.5898,227.2314" style="stroke:#181818;stroke-width:1;"/><line style="stroke:#181818;stroke-width:1;" x1="302.8132" x2="337.0378" y1="188.3125" y2="188.3125"/><polygon fill="#181818" points="327.0378,184.3125,337.0378,188.3125,327.0378,192.3125,331.0378,188.3125" style="stroke:#181818;stroke-width:1;"/><line style="stroke:#181818;stroke-width:1;" x1="252.5898" x2="252.5898" y1="257.2314" y2="277.2314"/><polygon fill="#181818" points="248.5898,267.2314,252.5898,277.2314,256.5898,267.2314,252.5898,271.2314" style="stroke:#181818;stroke-width:1;"/><line style="stroke:#181818;stroke-width:1;" x1="252.5898" x2="252.5898" y1="312.3252" y2="322.3252"/><line style="stroke:#181818;stroke-width:1;" x1="252.5898" x2="353.6248" y1="322.3252" y2="322.3252"/><polygon fill="#181818" points="349.6248,292.7783,353.6248,282.7783,357.6248,292.7783,353.6248,288.7783" style="stroke:#181818;stroke-width:1;"/><line style="stroke:#181818;stroke-width:1;" x1="353.6248" x2="353.6248" y1="245.2314" y2="322.3252"/><line style="stroke:#181818;stroke-width:1;" x1="353.6248" x2="341.6248" y1="245.2314" y2="245.2314"/><polygon fill="#181818" points="351.6248,241.2314,341.6248,245.2314,351.6248,249.2314,347.6248,245.2314" style="stroke:#181818;stroke-width:1;"/><line style="stroke:#181818;stroke-width:1;" x1="163.5549" x2="151.5549" y1="245.2314" y2="245.2314"/><polygon fill="#181818" points="147.5549,278.7783,151.5549,288.7783,155.5549,278.7783,151.5549,282.7783" style="stroke:#181818;stroke-width:1;"/><line style="stroke:#181818;stroke-width:1;" x1="151.5549" x2="151.5549" y1="245.2314" y2="334.3252"/><line style="stroke:#181818;stroke-width:1;" x1="151.5549" x2="252.5898" y1="334.3252" y2="334.3252"/><line style="stroke:#181818;stroke-width:1;" x1="252.5898" x2="252.5898" y1="334.3252" y2="354.3252"/><polygon fill="#181818" points="248.5898,344.3252,252.5898,354.3252,256.5898,344.3252,252.5898,348.3252" style="stroke:#181818;stroke-width:1;"/><line style="stroke:#181818;stroke-width:1;" x1="252.5898" x2="252.5898" y1="378.3252" y2="398.3252"/><polygon fill="#181818" points="248.5898,388.3252,252.5898,398.3252,256.5898,388.3252,252.5898,392.3252" style="stroke:#181818;stroke-width:1;"/><line style="stroke:#181818;stroke-width:1;" x1="252.5898" x2="252.5898" y1="433.4189" y2="443.4189"/><line style="stroke:#181818;stroke-width:1;" x1="252.5898" x2="353.324" y1="443.4189" y2="443.4189"/><polygon fill="#181818" points="349.324,413.8721,353.324,403.8721,357.324,413.8721,353.324,409.8721" style="stroke:#181818;stroke-width:1;"/><line style="stroke:#181818;stroke-width:1;" x1="353.324" x2="353.324" y1="366.3252" y2="443.4189"/><line style="stroke:#181818;stroke-width:1;" x1="353.324" x2="341.324" y1="366.3252" y2="366.3252"/><polygon fill="#181818" points="351.324,362.3252,341.324,366.3252,351.324,370.3252,347.324,366.3252" style="stroke:#181818;stroke-width:1;"/><line style="stroke:#181818;stroke-width:1;" x1="163.8557" x2="151.8557" y1="366.3252" y2="366.3252"/><polygon fill="#181818" points="147.8557,399.8721,151.8557,409.8721,155.8557,399.8721,151.8557,403.8721" style="stroke:#181818;stroke-width:1;"/><line style="stroke:#181818;stroke-width:1;" x1="151.8557" x2="151.8557" y1="366.3252" y2="455.4189"/><line style="stroke:#181818;stroke-width:1;" x1="151.8557" x2="252.5898" y1="455.4189" y2="455.4189"/><line style="stroke:#181818;stroke-width:1;" x1="252.5898" x2="252.5898" y1="455.4189" y2="475.4189"/><polygon fill="#181818" points="248.5898,465.4189,252.5898,475.4189,256.5898,465.4189,252.5898,469.4189" style="stroke:#181818;stroke-width:1;"/><line style="stroke:#181818;stroke-width:1;" x1="252.5898" x2="252.5898" y1="499.4189" y2="519.4189"/><polygon fill="#181818" points="248.5898,509.4189,252.5898,519.4189,256.5898,509.4189,252.5898,513.4189" style="stroke:#181818;stroke-width:1;"/><line style="stroke:#181818;stroke-width:1;" x1="252.5898" x2="252.5898" y1="554.5127" y2="564.5127"/><line style="stroke:#181818;stroke-width:1;" x1="252.5898" x2="385.3027" y1="564.5127" y2="564.5127"/><polygon fill="#181818" points="381.3027,534.9658,385.3027,524.9658,389.3027,534.9658,385.3027,530.9658" style="stroke:#181818;stroke-width:1;"/><line style="stroke:#181818;stroke-width:1;" x1="385.3027" x2="385.3027" y1="487.4189" y2="564.5127"/><line style="stroke:#181818;stroke-width:1;" x1="385.3027" x2="306.1541" y1="487.4189" y2="487.4189"/><polygon fill="#181818" points="316.1541,483.4189,306.1541,487.4189,316.1541,491.4189,312.1541,487.4189" style="stroke:#181818;stroke-width:1;"/><line style="stroke:#181818;stroke-width:1;" x1="199.0256" x2="119.877" y1="487.4189" y2="487.4189"/><polygon fill="#181818" points="115.877,520.9658,119.877,530.9658,123.877,520.9658,119.877,524.9658" style="stroke:#181818;stroke-width:1;"/><line style="stroke:#181818;stroke-width:1;" x1="119.877" x2="119.877" y1="487.4189" y2="576.5127"/><line style="stroke:#181818;stroke-width:1;" x1="119.877" x2="252.5898" y1="576.5127" y2="576.5127"/><line style="stroke:#181818;stroke-width:1;" x1="252.5898" x2="252.5898" y1="576.5127" y2="596.5127"/><polygon fill="#181818" points="248.5898,586.5127,252.5898,596.5127,256.5898,586.5127,252.5898,590.5127" style="stroke:#181818;stroke-width:1;"/><line style="stroke:#181818;stroke-width:1;" x1="138.0459" x2="138.0459" y1="665.6064" y2="685.6064"/><polygon fill="#181818" points="134.0459,675.6064,138.0459,685.6064,142.0459,675.6064,138.0459,679.6064" style="stroke:#181818;stroke-width:1;"/><line style="stroke:#181818;stroke-width:1;" x1="367.1338" x2="367.1338" y1="665.6064" y2="685.6064"/><polygon fill="#181818" points="363.1338,675.6064,367.1338,685.6064,371.1338,675.6064,367.1338,679.6064" style="stroke:#181818;stroke-width:1;"/><line style="stroke:#181818;stroke-width:1;" x1="176.0803" x2="138.0459" y1="608.5127" y2="608.5127"/><line style="stroke:#181818;stroke-width:1;" x1="138.0459" x2="138.0459" y1="608.5127" y2="630.5127"/><polygon fill="#181818" points="134.0459,620.5127,138.0459,630.5127,142.0459,620.5127,138.0459,624.5127" style="stroke:#181818;stroke-width:1;"/><line style="stroke:#181818;stroke-width:1;" x1="329.0994" x2="367.1338" y1="608.5127" y2="608.5127"/><line style="stroke:#181818;stroke-width:1;" x1="367.1338" x2="367.1338" y1="608.5127" y2="630.5127"/><polygon fill="#181818" points="363.1338,620.5127,367.1338,630.5127,371.1338,620.5127,367.1338,624.5127" style="stroke:#181818;stroke-width:1;"/><line style="stroke:#181818;stroke-width:1;" x1="252.5898" x2="252.5898" y1="116.7031" y2="176.3125"/><polygon fill="#181818" points="248.5898,166.3125,252.5898,176.3125,256.5898,166.3125,252.5898,170.3125" style="stroke:#181818;stroke-width:1;"/><!--SRC=[jP4zJyCm48Pt_ufJfsH0tPk1eJ0K0OsKLeW9kSwbEP7OaUyIG8Z_ZlCbYaH6F5dtyRplwMsq5n9o5bQtxuBU0d-mOBs2JmNXiOI1uRV9qEQGxhF3EZqUu2xRFoRgIwdcXx2xohI59pmn-Wvzpw02eant26IRLY3NecEG4Yr4wBtpyQJY6eKL8qJS6eFCiGfgLAYtagfGtPPeNc6NWivp7zgGEXv4ZvQ4HyZ634F1iRGChe0SEpAOzAG9OntKpkC521aYigElM2tAtTEv5BBd_vJRxX_2MLuMy4RNwFMwHisjnngjz6OIfVuGDAw69g1-gVLHD8vHACGHpBHLwEjEKwLF5LxFiJpZV60cFMkU3A2RuS8Nusn1v_LeBHbcWmKr1NWHwqGOAilx_Uut]--></g></svg>