<svg xmlns="http://www.w3.org/2000/svg" xmlns:xlink="http://www.w3.org/1999/xlink" contentStyleType="text/css" height="728px" preserveAspectRatio="none" style="width:447px;height:728px;background:#FFFFFF;" version="1.1" viewBox="0 0 447 728" width="447px" zoomAndPan="magnify"><defs/><g><rect fill="none" height="117.7031" style="stroke:#000000;stroke-width:1.5;" width="166.7031" x="166.7024" y="11"/><path d="M282.5159,11 L282.5159,21.6094 L272.5159,31.6094 L166.7024,31.6094 " fill="none" style="stroke:#000000;stroke-width:1.5;"/><text fill="#000000" font-family="sans-serif" font-size="14" lengthAdjust="spacing" textLength="105.8135" x="169.7024" y="26.5332">Externes System</text><ellipse cx="250.054" cy="51.6094" fill="#222222" rx="10" ry="10" style="stroke:#222222;stroke-width:1;"/><rect fill="#F1F1F1" height="35.0938" rx="12.5" ry="12.5" style="stroke:#181818;stroke-width:0.5;" width="146.7031" x="176.7024" y="81.6094"/><text fill="#000000" font-family="sans-serif" font-size="12" lengthAdjust="spacing" textLength="126.7031" x="186.7024" y="104.0664">Send POST/PUT JSON</text><rect fill="none" height="578.9033" style="stroke:#000000;stroke-width:1.5;" width="384.8047" x="51.4836" y="138.7031"/><path d="M166.5178,138.7031 L166.5178,149.3125 L156.5178,159.3125 L51.4836,159.3125 " fill="none" style="stroke:#000000;stroke-width:1.5;"/><text fill="#000000" font-family="sans-serif" font-size="14" lengthAdjust="spacing" textLength="105.0342" x="54.4836" y="154.2363">I-San Webserver</text><polygon fill="#F1F1F1" points="211.8306,176.3125,288.2773,176.3125,300.2773,188.3125,288.2773,200.3125,211.8306,200.3125,199.8306,188.3125,211.8306,176.3125" style="stroke:#181818;stroke-width:0.5;"/><text fill="#000000" font-family="sans-serif" font-size="11" lengthAdjust="spacing" textLength="39.7354" x="254.054" y="211.7314">success</text><text fill="#000000" font-family="sans-serif" font-size="11" lengthAdjust="spacing" textLength="76.4468" x="211.8306" y="192.8135">Save input data</text><text fill="#000000" font-family="sans-serif" font-size="11" lengthAdjust="spacing" textLength="23.2246" x="300.2773" y="185.8955">error</text><ellipse cx="345.502" cy="188.3125" fill="none" rx="11" ry="11" style="stroke:#222222;stroke-width:1;"/><ellipse cx="345.502" cy="188.3125" fill="#222222" rx="6" ry="6" style="stroke:#222222;stroke-width:1;"/><rect fill="#F1F1F1" height="35.0938" rx="12.5" ry="12.5" style="stroke:#181818;stroke-width:0.5;" width="138.0605" x="181.0237" y="277.2314"/><text fill="#000000" font-family="sans-serif" font-size="12" lengthAdjust="spacing" textLength="118.0605" x="191.0237" y="299.6885">check status of device</text><polygon fill="#F1F1F1" points="173.019,233.2314,327.0889,233.2314,339.0889,245.2314,327.0889,257.2314,173.019,257.2314,161.019,245.2314,173.019,233.2314" style="stroke:#181818;stroke-width:0.5;"/><text fill="#000000" font-family="sans-serif" font-size="11" lengthAdjust="spacing" textLength="154.0698" x="173.019" y="249.7324">Check IP address PositionUnits</text><text fill="#000000" font-family="sans-serif" font-size="11" lengthAdjust="spacing" textLength="151.019" x="10" y="242.8145">no more IP addresses (in data)</text><rect fill="#F1F1F1" height="35.0938" rx="12.5" ry="12.5" style="stroke:#181818;stroke-width:0.5;" width="138.0605" x="181.0237" y="398.3252"/><text fill="#000000" font-family="sans-serif" font-size="12" lengthAdjust="spacing" textLength="118.0605" x="191.0237" y="420.7822">check status of device</text><polygon fill="#F1F1F1" points="173.3198,354.3252,326.7881,354.3252,338.7881,366.3252,326.7881,378.3252,173.3198,378.3252,161.3198,366.3252,173.3198,354.3252" style="stroke:#181818;stroke-width:0.5;"/><text fill="#000000" font-family="sans-serif" font-size="11" lengthAdjust="spacing" textLength="153.4683" x="173.3198" y="370.8262">Check IP address LightingUnits</text><text fill="#000000" font-family="sans-serif" font-size="11" lengthAdjust="spacing" textLength="151.019" x="10.3008" y="363.9082">no more IP addresses (in data)</text><rect fill="#F1F1F1" height="35.0938" rx="12.5" ry="12.5" style="stroke:#181818;stroke-width:0.5;" width="241.4258" x="129.3411" y="519.4189"/><text fill="#000000" font-family="sans-serif" font-size="12" lengthAdjust="spacing" textLength="221.4258" x="139.3411" y="541.876">check status of camera/measurementUnit</text><polygon fill="#F1F1F1" points="208.4897,475.4189,291.6182,475.4189,303.6182,487.4189,291.6182,499.4189,208.4897,499.4189,196.4897,487.4189,208.4897,475.4189" style="stroke:#181818;stroke-width:0.5;"/><text fill="#000000" font-family="sans-serif" font-size="11" lengthAdjust="spacing" textLength="83.1284" x="208.4897" y="491.9199">Check COM Port</text><text fill="#000000" font-family="sans-serif" font-size="11" lengthAdjust="spacing" textLength="135.1099" x="61.3799" y="485.002">no more com ports (in data)</text><polygon fill="#F1F1F1" points="185.5444,596.5127,314.5635,596.5127,326.5635,608.5127,314.5635,620.5127,185.5444,620.5127,173.5444,608.5127,185.5444,596.5127" style="stroke:#181818;stroke-width:0.5;"/><text fill="#000000" font-family="sans-serif" font-size="11" lengthAdjust="spacing" textLength="129.019" x="185.5444" y="613.0137">posetive results available?</text><text fill="#000000" font-family="sans-serif" font-size="11" lengthAdjust="spacing" textLength="18.9546" x="154.5898" y="606.0957">Yes</text><text fill="#000000" font-family="sans-serif" font-size="11" lengthAdjust="spacing" textLength="23.2246" x="326.5635" y="606.0957">error</text><rect fill="#F1F1F1" height="35.0938" rx="12.5" ry="12.5" style="stroke:#181818;stroke-width:0.5;" width="170.7383" x="71.4836" y="630.5127"/><text fill="#000000" font-family="sans-serif" font-size="12" lengthAdjust="spacing" textLength="150.7383" x="81.4836" y="652.9697">Store results in config/status</text><ellipse cx="156.8528" cy="695.6064" fill="none" rx="10" ry="10" style="stroke:#222222;stroke-width:1.5;"/><line style="stroke:#222222;stroke-width:2.5;" x1="150.6656" x2="163.04" y1="689.4193" y2="701.7936"/><line style="stroke:#222222;stroke-width:2.5;" x1="163.04" x2="150.6656" y1="689.4193" y2="701.7936"/><rect fill="#F1F1F1" height="35.0938" rx="12.5" ry="12.5" style="stroke:#181818;stroke-width:0.5;" width="162.0664" x="262.2219" y="630.5127"/><text fill="#000000" font-family="sans-serif" font-size="12" lengthAdjust="spacing" textLength="142.0664" x="272.2219" y="652.9697">Show error in config/status</text><ellipse cx="343.2551" cy="695.6064" fill="none" rx="10" ry="10" style="stroke:#222222;stroke-width:1.5;"/><line style="stroke:#222222;stroke-width:2.5;" x1="337.0679" x2="349.4423" y1="689.4193" y2="701.7936"/><line style="stroke:#222222;stroke-width:2.5;" x1="349.4423" x2="337.0679" y1="689.4193" y2="701.7936"/><line style="stroke:#181818;stroke-width:1;" x1="250.054" x2="250.054" y1="61.6094" y2="81.6094"/><polygon fill="#181818" points="246.054,71.6094,250.054,81.6094,254.054,71.6094,250.054,75.6094" style="stroke:#181818;stroke-width:1;"/><line style="stroke:#181818;stroke-width:1;" x1="250.054" x2="250.054" y1="200.3125" y2="233.2314"/><polygon fill="#181818" points="246.054,223.2314,250.054,233.2314,254.054,223.2314,250.054,227.2314" style="stroke:#181818;stroke-width:1;"/><line style="stroke:#181818;stroke-width:1;" x1="300.2773" x2="334.502" y1="188.3125" y2="188.3125"/><polygon fill="#181818" points="324.502,184.3125,334.502,188.3125,324.502,192.3125,328.502,188.3125" style="stroke:#181818;stroke-width:1;"/><line style="stroke:#181818;stroke-width:1;" x1="250.054" x2="250.054" y1="257.2314" y2="277.2314"/><polygon fill="#181818" points="246.054,267.2314,250.054,277.2314,254.054,267.2314,250.054,271.2314" style="stroke:#181818;stroke-width:1;"/><line style="stroke:#181818;stroke-width:1;" x1="250.054" x2="250.054" y1="312.3252" y2="322.3252"/><line style="stroke:#181818;stroke-width:1;" x1="250.054" x2="351.0889" y1="322.3252" y2="322.3252"/><polygon fill="#181818" points="347.0889,292.7783,351.0889,282.7783,355.0889,292.7783,351.0889,288.7783" style="stroke:#181818;stroke-width:1;"/><line style="stroke:#181818;stroke-width:1;" x1="351.0889" x2="351.0889" y1="245.2314" y2="322.3252"/><line style="stroke:#181818;stroke-width:1;" x1="351.0889" x2="339.0889" y1="245.2314" y2="245.2314"/><polygon fill="#181818" points="349.0889,241.2314,339.0889,245.2314,349.0889,249.2314,345.0889,245.2314" style="stroke:#181818;stroke-width:1;"/><line style="stroke:#181818;stroke-width:1;" x1="161.019" x2="149.019" y1="245.2314" y2="245.2314"/><polygon fill="#181818" points="145.019,278.7783,149.019,288.7783,153.019,278.7783,149.019,282.7783" style="stroke:#181818;stroke-width:1;"/><line style="stroke:#181818;stroke-width:1;" x1="149.019" x2="149.019" y1="245.2314" y2="334.3252"/><line style="stroke:#181818;stroke-width:1;" x1="149.019" x2="250.054" y1="334.3252" y2="334.3252"/><line style="stroke:#181818;stroke-width:1;" x1="250.054" x2="250.054" y1="334.3252" y2="354.3252"/><polygon fill="#181818" points="246.054,344.3252,250.054,354.3252,254.054,344.3252,250.054,348.3252" style="stroke:#181818;stroke-width:1;"/><line style="stroke:#181818;stroke-width:1;" x1="250.054" x2="250.054" y1="378.3252" y2="398.3252"/><polygon fill="#181818" points="246.054,388.3252,250.054,398.3252,254.054,388.3252,250.054,392.3252" style="stroke:#181818;stroke-width:1;"/><line style="stroke:#181818;stroke-width:1;" x1="250.054" x2="250.054" y1="433.4189" y2="443.4189"/><line style="stroke:#181818;stroke-width:1;" x1="250.054" x2="350.7881" y1="443.4189" y2="443.4189"/><polygon fill="#181818" points="346.7881,413.8721,350.7881,403.8721,354.7881,413.8721,350.7881,409.8721" style="stroke:#181818;stroke-width:1;"/><line style="stroke:#181818;stroke-width:1;" x1="350.7881" x2="350.7881" y1="366.3252" y2="443.4189"/><line style="stroke:#181818;stroke-width:1;" x1="350.7881" x2="338.7881" y1="366.3252" y2="366.3252"/><polygon fill="#181818" points="348.7881,362.3252,338.7881,366.3252,348.7881,370.3252,344.7881,366.3252" style="stroke:#181818;stroke-width:1;"/><line style="stroke:#181818;stroke-width:1;" x1="161.3198" x2="149.3198" y1="366.3252" y2="366.3252"/><polygon fill="#181818" points="145.3198,399.8721,149.3198,409.8721,153.3198,399.8721,149.3198,403.8721" style="stroke:#181818;stroke-width:1;"/><line style="stroke:#181818;stroke-width:1;" x1="149.3198" x2="149.3198" y1="366.3252" y2="455.4189"/><line style="stroke:#181818;stroke-width:1;" x1="149.3198" x2="250.054" y1="455.4189" y2="455.4189"/><line style="stroke:#181818;stroke-width:1;" x1="250.054" x2="250.054" y1="455.4189" y2="475.4189"/><polygon fill="#181818" points="246.054,465.4189,250.054,475.4189,254.054,465.4189,250.054,469.4189" style="stroke:#181818;stroke-width:1;"/><line style="stroke:#181818;stroke-width:1;" x1="250.054" x2="250.054" y1="499.4189" y2="519.4189"/><polygon fill="#181818" points="246.054,509.4189,250.054,519.4189,254.054,509.4189,250.054,513.4189" style="stroke:#181818;stroke-width:1;"/><line style="stroke:#181818;stroke-width:1;" x1="250.054" x2="250.054" y1="554.5127" y2="564.5127"/><line style="stroke:#181818;stroke-width:1;" x1="250.054" x2="382.7668" y1="564.5127" y2="564.5127"/><polygon fill="#181818" points="378.7668,534.9658,382.7668,524.9658,386.7668,534.9658,382.7668,530.9658" style="stroke:#181818;stroke-width:1;"/><line style="stroke:#181818;stroke-width:1;" x1="382.7668" x2="382.7668" y1="487.4189" y2="564.5127"/><line style="stroke:#181818;stroke-width:1;" x1="382.7668" x2="303.6182" y1="487.4189" y2="487.4189"/><polygon fill="#181818" points="313.6182,483.4189,303.6182,487.4189,313.6182,491.4189,309.6182,487.4189" style="stroke:#181818;stroke-width:1;"/><line style="stroke:#181818;stroke-width:1;" x1="196.4897" x2="117.3411" y1="487.4189" y2="487.4189"/><polygon fill="#181818" points="113.3411,520.9658,117.3411,530.9658,121.3411,520.9658,117.3411,524.9658" style="stroke:#181818;stroke-width:1;"/><line style="stroke:#181818;stroke-width:1;" x1="117.3411" x2="117.3411" y1="487.4189" y2="576.5127"/><line style="stroke:#181818;stroke-width:1;" x1="117.3411" x2="250.054" y1="576.5127" y2="576.5127"/><line style="stroke:#181818;stroke-width:1;" x1="250.054" x2="250.054" y1="576.5127" y2="596.5127"/><polygon fill="#181818" points="246.054,586.5127,250.054,596.5127,254.054,586.5127,250.054,590.5127" style="stroke:#181818;stroke-width:1;"/><line style="stroke:#181818;stroke-width:1;" x1="156.8528" x2="156.8528" y1="665.6064" y2="685.6064"/><polygon fill="#181818" points="152.8528,675.6064,156.8528,685.6064,160.8528,675.6064,156.8528,679.6064" style="stroke:#181818;stroke-width:1;"/><line style="stroke:#181818;stroke-width:1;" x1="343.2551" x2="343.2551" y1="665.6064" y2="685.6064"/><polygon fill="#181818" points="339.2551,675.6064,343.2551,685.6064,347.2551,675.6064,343.2551,679.6064" style="stroke:#181818;stroke-width:1;"/><line style="stroke:#181818;stroke-width:1;" x1="173.5444" x2="156.8528" y1="608.5127" y2="608.5127"/><line style="stroke:#181818;stroke-width:1;" x1="156.8528" x2="156.8528" y1="608.5127" y2="630.5127"/><polygon fill="#181818" points="152.8528,620.5127,156.8528,630.5127,160.8528,620.5127,156.8528,624.5127" style="stroke:#181818;stroke-width:1;"/><line style="stroke:#181818;stroke-width:1;" x1="326.5635" x2="343.2551" y1="608.5127" y2="608.5127"/><line style="stroke:#181818;stroke-width:1;" x1="343.2551" x2="343.2551" y1="608.5127" y2="630.5127"/><polygon fill="#181818" points="339.2551,620.5127,343.2551,630.5127,347.2551,620.5127,343.2551,624.5127" style="stroke:#181818;stroke-width:1;"/><line style="stroke:#181818;stroke-width:1;" x1="250.054" x2="250.054" y1="116.7031" y2="176.3125"/><polygon fill="#181818" points="246.054,166.3125,250.054,176.3125,254.054,166.3125,250.054,170.3125" style="stroke:#181818;stroke-width:1;"/><!--SRC=[jP4_JyCm4CLtVufJfsH0tPk1eM8e0Xh9hH2ZwroQ4uaTsPSKXFZkN9965AaTyMJTdzzxfzUQmCJa7ImUFXY3mmZwCp8s2_XI82-oZ8o_bKPNGBxLksM-ty6ZthvawbkfzfUnkTF6mIiU8eOUmy2W4X9jUWHoRSTG63OfS8KE4Wp1X_Iiubk5TKH8OcSjnfWgKQDIdIggfRgkqBx39WTJ547QaFiuYkuTSPmWApiEYMFk8lWI2kp9OZQGpXZdeV41Bq1oS49kyfMgct9FTAoOtF4_vTRRPpahy0syDGq6ispGn2vWWuu7CvbILmIjRw0Lr1-r8OhMHsIIECHCLqlVz8PgSwZnVexb3US3DG-iUL90rhkIZil9KpOEYROw9tUHvqfN_WHZuShUiFC3]--></g></svg>